<?xml version="1.0" encoding="UTF-8" standalone="no"?>
<!-- Created with Inkscape (http://www.inkscape.org/) -->
<svg xmlns:dc="http://purl.org/dc/elements/1.1/" xmlns:cc="http://creativecommons.org/ns#" xmlns:rdf="http://www.w3.org/1999/02/22-rdf-syntax-ns#" xmlns:svg="http://www.w3.org/2000/svg" xmlns="http://www.w3.org/2000/svg" xmlns:sodipodi="http://sodipodi.sourceforge.net/DTD/sodipodi-0.dtd" xmlns:inkscape="http://www.inkscape.org/namespaces/inkscape" width="744.09448819" height="1052.3622047" id="svg4189" version="1.1" inkscape:version="0.47 r22583" sodipodi:docname="New document 10">
  <defs id="defs4191">
    <inkscape:perspective sodipodi:type="inkscape:persp3d" inkscape:vp_x="0 : 526.18109 : 1" inkscape:vp_y="0 : 1000 : 0" inkscape:vp_z="744.09448 : 526.18109 : 1" inkscape:persp3d-origin="372.04724 : 350.78739 : 1" id="perspective4197"/>
    <inkscape:perspective id="perspective4184" inkscape:persp3d-origin="0.5 : 0.33333333 : 1" inkscape:vp_z="1 : 0.5 : 1" inkscape:vp_y="0 : 1000 : 0" inkscape:vp_x="0 : 0.5 : 1" sodipodi:type="inkscape:persp3d"/>
  </defs>
  <sodipodi:namedview id="base" pagecolor="#ffffff" bordercolor="#666666" borderopacity="1.0" inkscape:pageopacity="0.0" inkscape:pageshadow="2" inkscape:zoom="0.49222597" inkscape:cx="372.04724" inkscape:cy="526.18109" inkscape:document-units="px" inkscape:current-layer="layer1" showgrid="false" inkscape:window-width="1280" inkscape:window-height="773" inkscape:window-x="0" inkscape:window-y="1" inkscape:window-maximized="1"/>
  <metadata id="metadata4194">
    <rdf:RDF>
      <cc:Work rdf:about="">
        <dc:format>image/svg+xml</dc:format>
        <dc:type rdf:resource="http://purl.org/dc/dcmitype/StillImage"/>
        <dc:title/>
      </cc:Work>
    </rdf:RDF>
  </metadata>
  <g inkscape:label="Layer 1" inkscape:groupmode="layer" id="layer1">
    <path style="fill:#000000;fill-opacity:1;stroke:none" d="m 454.0411,74.365503 c -82.04482,-0.443556 -102.97961,55.412977 -109.15198,76.378107 -8.89838,0.58442 -12.63938,10.19209 -5.46236,11.96061 4.24903,1.04705 4.14637,16.47991 0.18869,16.10436 -13.1797,-1.25021 -17.35339,16.87636 -9.4178,20.71911 4.77324,2.31147 4.8706,13.98813 0.94176,14.59758 -11.38039,1.76511 -17.97699,19.77584 -0.0937,23.1677 5.83882,1.10745 5.19995,10.07894 -0.75339,11.77225 -3.04187,0.86517 -20.46353,9.35707 -3.76715,26.74643 -16.16752,12.35116 -15.76628,36.51756 -9.13522,46.24133 3.39153,4.97333 11.02862,9.62837 10.73628,13.93827 -0.93402,13.77605 -32.32167,76.97609 -40.11973,87.02024 -6.51949,8.39736 -6.77652,19.42179 -4.8972,28.81843 0.93959,4.69828 9.92248,14.92038 16.48108,16.95196 8.20828,2.54262 11.25112,2.12016 18.11674,-0.97923 -10.65713,11.68439 8.65196,16.3053 21.15533,1.16759 6.9785,-8.44879 17.11916,-2.1592 26.65234,-5.55644 13.96788,-4.97772 25.8732,-25.49569 47.65396,-23.82701 5.61141,23.79838 -18.59633,34.78468 -24.20374,63.00493 -4.62504,-26.62096 11.99711,-35.84568 16.76366,-53.30462 -9.15121,-2.90178 -29.54515,22.36256 -42.56833,22.97935 -5.70936,0.27058 -16.60937,-0.98054 -18.55302,2.91954 -6.12796,12.29593 -36.25327,20.29625 -40.40225,5.08563 -18.02849,-1.33762 -31.82603,-16.57452 -32.30293,-38.42453 -0.53397,-24.45173 20.50165,-37.16324 38.42452,-91.44663 -62.26713,-4.05156 -143.0483,80.04246 -145.41048,102.18285 -3.19419,29.93904 20.34664,116.42387 22.22595,167.16549 1.87932,50.74175 -4.72534,80.87126 -3.76708,99.64003 0.57656,11.29613 -11.27811,14.43254 -10.83049,33.05645 0.26338,10.95505 -3.91279,30.95437 -1.13012,40.68476 3.18194,11.12677 0.72803,76.60035 -10.54792,91.63499 -11.27595,15.03452 -1.87931,45.02965 0,50.66759 1.87932,5.63794 2.16615,31.92627 2.16615,31.92627 2.34633,14.68229 28.77493,9.80789 38.14195,4.80304 9.24202,-4.93795 10.32411,-23.08076 6.78077,-30.70193 -15.29265,-32.8922 -7.26016,-38.25732 -11.01879,-47.6539 -3.75863,-9.39663 0.82631,-77.36913 9.13528,-89.4689 11.7034,-17.04297 3.12671,-30.89626 9.13523,-47.37145 6.83141,-18.73156 17.96152,-51.34183 22.69683,-59.99117 6.07075,-11.08877 16.54031,-58.60292 24.5804,-70.82167 2.51117,-3.81628 14.24378,-1.44722 20.62496,-4.04966 29.54639,33.62095 56.15195,42.10624 100.40187,45.98731 4.7222,24.33236 20.16889,55.47274 33.98969,82.94202 8.79957,17.48934 -2.91293,35.38457 14.03248,58.86112 5.05064,6.99718 5.30629,47.17018 3.48463,59.61451 -2.19019,14.96186 -4.72056,33.29507 -4.14387,39.64886 0.67949,7.48647 6.36493,17.67489 6.21575,39.46043 5.36958,14.43064 26.66741,40.84331 43.88681,23.82695 26.45114,9.26986 29.90353,5.56443 44.82864,-1.13012 13.00215,-5.83201 -0.40228,-33.31669 -11.67804,-65.26516 -11.27595,-31.94848 -9.32581,-82.76899 -1.88357,-98.41577 14.98917,-31.5135 0.0852,-36.0607 10.54792,-66.11277 5.52689,-15.87465 4.44617,-29.88931 20.7191,-64.70013 4.56811,-9.77186 0.9145,-29.81109 2.63697,-41.72067 6.39428,-44.21126 66.39678,-49.81919 31.92626,-141.26667 -9.6515,-25.60471 -38.25588,-94.45488 -65.83025,-105.29068 -7.9295,-15.37869 -21.98741,-59.44561 -53.11625,-89.09218 -2.93769,-16.94069 -4.62832,-45.57698 -16.38694,-48.03069 -15.01689,-3.13352 -15.76347,18.00188 -16.29272,23.92123 -0.2909,3.25558 -8.70012,2.7414 -7.06335,-9.22944 1.20952,-8.84583 5.02777,-16.58657 6.40411,-33.52726 5.34685,-3.0437 5.30406,-10.81916 9.60616,-18.27051 18.80835,-32.57712 66.84932,-110.16292 128.45839,-109.43456 13.60498,0.16118 14.06223,-5.886384 2.63703,-8.664342 -87.45639,-21.264151 -141.09685,55.677282 -145.69299,55.376492 -20.49688,-1.34194 -14.57249,12.84628 -11.48974,17.32875 1.9939,2.89903 -8.70955,18.43339 -12.71394,17.70542 -25.62456,-4.65878 -7.92917,19.80887 -20.05987,24.67455 -1.61095,-92.75364 51.91112,-125.722103 85.04246,-129.965302 5.74794,-0.736093 6.1858,-6.41872 0.6593,-6.686622 -2.7754,-0.134967 -5.54681,-0.267968 -8.19347,-0.282382 l -7.8e-4,-1.31e-4 10e-6,0 z M 372.10648,341.83027 c 0.12318,-0.0524 0.26601,-0.0524 0.37673,0 12.23455,5.89733 29.94855,0.37673 29.94855,0.37673 0,0 -14.43241,18.72978 -25.52223,13.18488 -5.28015,-2.64011 -9.29108,7.09571 -10.17112,6.21574 0.41276,-6.60033 3.52054,-18.95982 5.36807,-19.77735 z m -64.8885,317.0023 c -7.98479,39.19796 -25.49188,69.57774 -30.51357,75.43642 -4.3553,5.08117 -6.3287,21.4035 2.63697,33.24474 10.10062,13.34016 17.00038,39.15289 21.28413,45.95876 24.95824,39.65187 24.71373,74.00931 23.26192,88.52702 -1.45174,14.51777 23.96467,12.31415 27.5941,16.66945 3.62949,4.35536 9.4178,12.39676 9.4178,18.92974 0,6.53299 29.0039,11.5679 41.344,8.66435 12.34009,-2.90356 18.22261,-1.39828 9.51195,-15.91599 -8.7106,-14.51778 -31.20472,-36.34545 -37.01183,-43.60437 -5.80705,-7.25879 -37.0554,-60.98239 -40.68476,-87.11439 -3.6295,-26.13193 4.30184,-58.75695 15.91606,-78.3559 11.61415,-19.59895 22.50846,-45.01693 22.50846,-45.01693 0,0 -20.98609,5.80554 -65.26523,-17.4229 z m 167.63637,18.8356 c 0,0 0.75346,32.68843 0.75346,42.85084 0,10.16241 5.79558,27.60727 2.16609,42.85092 -3.62943,15.24358 -4.61829,31.89095 -0.75339,45.67617 7.62117,27.18349 -6.49833,69.69155 -6.49833,69.69155 0,0 -12.34442,-49.2885 -5.08556,-72.51688 5.98846,-19.16312 5.09283,-37.06418 -2.16609,-50.85601 -7.25885,-13.79184 -10.57955,-47.30062 -11.25681,-72.61103 13.88906,-0.72594 22.84063,-5.08556 22.84063,-5.08556 z" id="path4148" sodipodi:nodetypes="ccsssssscssssscsscccsscscssssssscsssssssccssssccsssssssccssscsssssscsscccccsccccssssssssssccccsscssccc"/>
  </g>
</svg>