<?xml version="1.0" encoding="UTF-8"?>
<!-- Svg Vector Icons : http://www.onlinewebfonts.com/icon -->
<!DOCTYPE svg PUBLIC "-//W3C//DTD SVG 1.1//EN" "http://www.w3.org/Graphics/SVG/1.1/DTD/svg11.dtd">
<svg version="1.1" xmlns="http://www.w3.org/2000/svg" xmlns:xlink="http://www.w3.org/1999/xlink" x="0px" y="0px" viewBox="0 0 1000 1000" enable-background="new 0 0 1000 1000" xml:space="preserve">
<metadata> Svg Vector Icons : http://www.onlinewebfonts.com/icon </metadata>
<g><path d="M20.3,10L20.3,10L20.3,10z"/><path d="M908.5,372.6C826.9,182.5,695.4,37.9,629,64.9C516,110.8,696.3,331.3,141.9,556.7c-48,19.5-60.1,97.3-40,143.9c20.1,46.5,85.5,93,133.4,73.5c8.3-3.4,38.7-13.2,38.7-13.2c34.2,45.9,70,18.7,82.8,47.8c15.2,35.1,48.5,111.3,59.7,137.2c11.2,25.9,36.9,49.9,55.4,42.8c18.4-7.1,81.5-31.1,105.7-40.2c24.2-9.2,29.9-30.7,22.6-47.7c-8-18.3-40.5-23.6-49.8-45c-9.3-21.4-39.7-89.7-48.5-111.3c-11.9-29.3,13.4-53.1,50-57c252.5-26.3,299.6,129.6,385.5,94.6c66.3-27.1,52.9-219.7-28.9-409.8L908.5,372.6z M880.1,680.7c-14.7,5.9-114.1-72.3-177.5-220.1c-63.4-147.8-55.4-282.8-40.7-288.7c14.7-5.9,111.7,88.4,175.1,236.2C900.4,555.8,894.8,674.8,880.1,680.7z"/></g>
</svg>