<?xml version="1.0" encoding="UTF-8" standalone="no"?>
<!-- Created with Inkscape (http://www.inkscape.org/) -->

<svg
   xmlns:dc="http://purl.org/dc/elements/1.1/"
   xmlns:cc="http://creativecommons.org/ns#"
   xmlns:rdf="http://www.w3.org/1999/02/22-rdf-syntax-ns#"
   xmlns:svg="http://www.w3.org/2000/svg"
   xmlns="http://www.w3.org/2000/svg"
   xmlns:sodipodi="http://sodipodi.sourceforge.net/DTD/sodipodi-0.dtd"
   xmlns:inkscape="http://www.inkscape.org/namespaces/inkscape"
   width="35.718773"
   height="38.48238"
   viewBox="0 0 35.718773 38.482381"
   id="svg7129"
   version="1.1"
   inkscape:version="0.91 r13725"
   sodipodi:docname="add-new.svg">
  <defs
     id="defs7131">
    <inkscape:path-effect
       effect="spiro"
       id="path-effect5681"
       is_visible="true" />
    <inkscape:path-effect
       effect="spiro"
       id="path-effect5685"
       is_visible="true" />
    <inkscape:path-effect
       effect="spiro"
       id="path-effect5681-0"
       is_visible="true" />
    <inkscape:path-effect
       effect="spiro"
       id="path-effect5685-8"
       is_visible="true" />
  </defs>
  <sodipodi:namedview
     id="base"
     pagecolor="#ffffff"
     bordercolor="#666666"
     borderopacity="1.0"
     inkscape:pageopacity="0.0"
     inkscape:pageshadow="2"
     inkscape:zoom="13.460706"
     inkscape:cx="17.859386"
     inkscape:cy="19.24119"
     inkscape:document-units="px"
     inkscape:current-layer="g5743"
     showgrid="false"
     fit-margin-top="5"
     fit-margin-right="5"
     fit-margin-bottom="5"
     fit-margin-left="5"
     units="px"
     showguides="false"
     inkscape:window-width="1280"
     inkscape:window-height="731"
     inkscape:window-x="0"
     inkscape:window-y="27"
     inkscape:window-maximized="1" />
  <metadata
     id="metadata7134">
    <rdf:RDF>
      <cc:Work
         rdf:about="">
        <dc:format>image/svg+xml</dc:format>
        <dc:type
           rdf:resource="http://purl.org/dc/dcmitype/StillImage" />
        <dc:title />
      </cc:Work>
    </rdf:RDF>
  </metadata>
  <g
     inkscape:label="Layer 1"
     inkscape:groupmode="layer"
     id="layer1"
     transform="translate(182.8932,-562.36881)">
    <g
       transform="translate(-583.69696,256.20308)"
       id="g5743">
      <circle
         style="opacity:1;fill:#ffffff;fill-opacity:1;stroke:none;stroke-width:1;stroke-linecap:square;stroke-linejoin:miter;stroke-miterlimit:4;stroke-dasharray:none;stroke-opacity:1"
         id="path3826"
         cx="418.55914"
         cy="325.25833"
         r="10.252063" />
      <path
         style="opacity:1;fill:#d743e3;fill-opacity:1;stroke:none;stroke-width:0.30000001;stroke-linecap:butt;stroke-linejoin:miter;stroke-miterlimit:4;stroke-dasharray:none;stroke-dashoffset:0;stroke-opacity:1"
         d="M 17.859375 6.3808594 A 12.859382 12.859382 0 0 0 5 19.240234 A 12.859382 12.859382 0 0 0 17.859375 32.099609 A 12.859382 12.859382 0 0 0 30.71875 19.240234 A 12.859382 12.859382 0 0 0 17.859375 6.3808594 z M 17.826172 11.888672 A 2.1775865 2.1775865 0 0 1 19.398438 12.525391 A 2.1775865 2.1775865 0 0 1 20.037109 14.095703 L 20.037109 17.064453 L 23.005859 17.064453 A 2.1775865 2.1775865 0 0 1 24.529297 17.65625 A 2.1775865 2.1775865 0 0 1 23.003906 21.417969 L 20.037109 21.417969 L 20.037109 24.386719 A 2.177734 2.177734 0 0 1 15.681641 24.386719 L 15.681641 21.417969 L 12.712891 21.417969 A 2.1775865 2.1775865 0 1 1 12.714844 17.064453 L 15.681641 17.064453 L 15.681641 14.095703 A 2.1775865 2.1775865 0 0 1 17.826172 11.888672 z "
         transform="translate(400.80376,306.16573)"
         id="circle5745" />
      <g
         id="g5747"
         transform="matrix(0.51453444,0.51453444,-0.51453444,0.51453444,370.99781,-48.845981)"
         style="fill:#ffffff;stroke:#ffffff;stroke-width:5.98507214;stroke-miterlimit:4;stroke-dasharray:none;stroke-opacity:1" />
    </g>
  </g>
</svg>
