<?xml version="1.0" encoding="UTF-8" standalone="no"?>
<!-- Created with Inkscape (http://www.inkscape.org/) -->

<svg
   xmlns:dc="http://purl.org/dc/elements/1.1/"
   xmlns:cc="http://creativecommons.org/ns#"
   xmlns:rdf="http://www.w3.org/1999/02/22-rdf-syntax-ns#"
   xmlns:svg="http://www.w3.org/2000/svg"
   xmlns="http://www.w3.org/2000/svg"
   xmlns:sodipodi="http://sodipodi.sourceforge.net/DTD/sodipodi-0.dtd"
   xmlns:inkscape="http://www.inkscape.org/namespaces/inkscape"
   width="35.718773"
   height="38.48238"
   viewBox="0 0 35.718773 38.482381"
   id="svg7129"
   version="1.1"
   inkscape:version="0.91 r"
   sodipodi:docname="business.svg">
  <defs
     id="defs7131" />
  <sodipodi:namedview
     id="base"
     pagecolor="#ffffff"
     bordercolor="#666666"
     borderopacity="1.0"
     inkscape:pageopacity="0.0"
     inkscape:pageshadow="2"
     inkscape:zoom="17.592467"
     inkscape:cx="17.859386"
     inkscape:cy="19.24119"
     inkscape:document-units="px"
     inkscape:current-layer="layer1"
     showgrid="false"
     fit-margin-top="5"
     fit-margin-right="5"
     fit-margin-bottom="5"
     fit-margin-left="5"
     units="px" />
  <metadata
     id="metadata7134">
    <rdf:RDF>
      <cc:Work
         rdf:about="">
        <dc:format>image/svg+xml</dc:format>
        <dc:type
           rdf:resource="http://purl.org/dc/dcmitype/StillImage" />
        <dc:title></dc:title>
      </cc:Work>
    </rdf:RDF>
  </metadata>
  <g
     inkscape:label="Layer 1"
     inkscape:groupmode="layer"
     id="layer1"
     transform="translate(182.8932,-562.36881)">
    <g
       transform="translate(-733.08845,347.77531)"
       id="g7089">
      <path
         sodipodi:nodetypes="sssssssss"
         inkscape:connector-curvature="0"
         id="circle7068"
         d="m 580.28107,233.70283 c 0,3.50004 -0.98766,6.97202 -3.1977,9.30527 -2.21004,2.33324 -5.64246,3.52774 -9.05511,3.52774 -3.41265,0 -6.55497,-0.94396 -8.79138,-3.23765 -2.23642,-2.29368 -3.56692,-5.93708 -3.56692,-9.43712 0,-3.50004 1.3305,-7.19619 3.56691,-9.48988 2.23642,-2.29368 5.37874,-2.92117 8.79139,-2.92117 3.41265,0 6.66046,0.73299 8.89688,3.02667 2.23641,2.29368 3.35593,5.7261 3.35593,9.22614 z"
         style="opacity:1;fill:#ffffff;fill-opacity:1;stroke:none;stroke-width:0.30000001;stroke-linecap:butt;stroke-linejoin:miter;stroke-miterlimit:4;stroke-dasharray:none;stroke-dashoffset:0;stroke-opacity:1" />
      <g
         transform="translate(0.38803831,3.492345)"
         id="g7032">
        <path
           id="path7019"
           d="m 570.06554,217.54799 -4.79788,0 c -5.74121,0 -10.39541,5.72873 -10.39541,12.79435 0,7.06563 4.6542,12.79435 10.39541,12.79435 l 4.79788,0 c 5.74121,0 10.39541,-5.72872 10.39541,-12.79435 0,-7.06562 -4.6542,-12.79435 -10.39541,-12.79435 z m 9.23812,9.59576 -3.99824,0 c -0.1156,-0.54976 -0.26083,-1.08077 -0.43261,-1.59928 l 3.98264,0 c 0.17957,0.51541 0.32635,1.04952 0.44821,1.59928 z m -2.10531,-4.79788 c 0.35762,0.49823 0.68248,1.0308 0.96986,1.59929 l -3.93267,0 c -0.26708,-0.56224 -0.5654,-1.09481 -0.8965,-1.59929 z m -3.71558,-3.19858 c 0.83405,0.39982 1.6118,0.94023 2.31619,1.5993 l -3.66713,0 0,0.0437 c -0.57476,-0.62472 -1.19478,-1.18388 -1.87262,-1.64302 l 3.22356,0 z m -8.21511,23.18975 c -5.29141,0 -9.59576,-5.38042 -9.59576,-11.9947 0,-6.61428 4.30435,-11.9947 9.59576,-11.9947 5.29141,0 9.59576,5.38042 9.59576,11.9947 0,6.61428 -4.30435,11.9947 -9.59576,11.9947 z m 11.93069,-3.99822 -3.85926,0 c 0.33111,-0.50448 0.62943,-1.03706 0.89651,-1.59931 l 3.93266,0 c -0.28743,0.56851 -0.61229,1.10107 -0.96991,1.59931 z"
           inkscape:connector-curvature="0"
           style="fill:#d743e3;fill-opacity:1"
           sodipodi:nodetypes="ssssssscccccccccccccccccsssssccccc" />
        <text
           xml:space="preserve"
           style="font-style:normal;font-variant:normal;font-weight:bold;font-stretch:normal;font-size:20px;line-height:125%;font-family:serif;-inkscape-font-specification:'serif Bold';text-align:center;letter-spacing:0px;word-spacing:0px;text-anchor:middle;fill:#d743e3;fill-opacity:1;stroke:none;stroke-width:1px;stroke-linecap:butt;stroke-linejoin:miter;stroke-opacity:1"
           x="564.99249"
           y="237.15234"
           id="text7028"
           sodipodi:linespacing="125%"><tspan
             sodipodi:role="line"
             id="tspan7030"
             x="564.99249"
             y="237.15234">1</tspan></text>
      </g>
    </g>
  </g>
</svg>
