<?xml version="1.0" encoding="UTF-8" standalone="no"?>
<!-- Created with Inkscape (http://www.inkscape.org/) -->

<svg
   xmlns:dc="http://purl.org/dc/elements/1.1/"
   xmlns:cc="http://creativecommons.org/ns#"
   xmlns:rdf="http://www.w3.org/1999/02/22-rdf-syntax-ns#"
   xmlns:svg="http://www.w3.org/2000/svg"
   xmlns="http://www.w3.org/2000/svg"
   xmlns:sodipodi="http://sodipodi.sourceforge.net/DTD/sodipodi-0.dtd"
   xmlns:inkscape="http://www.inkscape.org/namespaces/inkscape"
   width="35.718773"
   height="38.48238"
   viewBox="0 0 35.718773 38.482381"
   id="svg7129"
   version="1.1"
   inkscape:version="0.91 r"
   sodipodi:docname="caged.svg">
  <defs
     id="defs7131" />
  <sodipodi:namedview
     id="base"
     pagecolor="#ffffff"
     bordercolor="#666666"
     borderopacity="1.0"
     inkscape:pageopacity="0.0"
     inkscape:pageshadow="2"
     inkscape:zoom="17.592467"
     inkscape:cx="17.859386"
     inkscape:cy="19.24119"
     inkscape:document-units="px"
     inkscape:current-layer="layer1"
     showgrid="false"
     fit-margin-top="5"
     fit-margin-right="5"
     fit-margin-bottom="5"
     fit-margin-left="5"
     units="px" />
  <metadata
     id="metadata7134">
    <rdf:RDF>
      <cc:Work
         rdf:about="">
        <dc:format>image/svg+xml</dc:format>
        <dc:type
           rdf:resource="http://purl.org/dc/dcmitype/StillImage" />
        <dc:title></dc:title>
      </cc:Work>
    </rdf:RDF>
  </metadata>
  <g
     inkscape:label="Layer 1"
     inkscape:groupmode="layer"
     id="layer1"
     transform="translate(182.8932,-562.36881)">
    <g
       transform="translate(-670.6842,348.1541)"
       id="g7064">
      <circle
         style="opacity:1;fill:#ffffff;fill-opacity:1;stroke:none;stroke-width:0.30000001;stroke-linecap:butt;stroke-linejoin:miter;stroke-miterlimit:4;stroke-dasharray:none;stroke-dashoffset:0;stroke-opacity:1"
         id="circle7056"
         cx="505.65039"
         cy="234.81873"
         r="12.859382" />
      <path
         inkscape:connector-curvature="0"
         id="path5276"
         d="m 505.6711,219.23411 c -1.0661,0 -1.9325,0.76928 -1.9325,1.70978 0,0.4395 0.19293,0.83563 0.5044,1.13984 -0.12266,0.0234 -0.26061,0.013 -0.37994,0.0459 l -0.0333,-0.008 c -0.002,0.0103 -0.0155,0.0103 -0.0208,0.0208 -0.0103,0.002 -0.0156,0.0103 -0.0267,0.013 a 12.837107,12.837107 0 0 1 1.89322,-0.1574 12.837107,12.837107 0 0 1 1.41496,0.0853 c 0.31228,-0.30422 0.51758,-0.7002 0.51755,-1.13985 0,-0.94049 -0.86629,-1.7098 -1.93251,-1.7098 l -0.008,0 z m 1.42156,2.84962 a 12.837107,12.837107 0 0 1 0.47167,0.0722 c -0.0103,-0.003 -0.0208,-0.0103 -0.0334,-0.013 -0.003,-0.0103 -0.0103,-0.0103 -0.013,-0.0208 l -0.027,0.008 -0.008,0 c -0.1211,-0.0339 -0.26763,-0.0207 -0.39305,-0.0459 z m 0.47167,0.0722 c 1.65806,0.46609 2.97282,1.52642 3.93707,2.86269 1.30586,1.80984 2.08709,4.13179 2.57448,6.43298 0.97479,4.60242 0.76645,9.16466 0.76645,9.16466 l -0.0333,0.63546 -9.1319,0 -9.13847,0 -0.0333,-0.63546 c 0,0 -0.19318,-4.56262 0.78613,-9.16466 0.48955,-2.30098 1.26401,-4.62339 2.56792,-6.43298 0.96276,-1.33607 2.27051,-2.3965 3.92398,-2.86269 a 12.837107,12.837107 0 0 0 -10.94651,12.68248 12.837107,12.837107 0 0 0 12.83973,12.8397 12.837107,12.837107 0 0 0 12.83316,-12.8397 12.837107,12.837107 0 0 0 -10.94651,-12.68248 z m -1.89323,-2.12253 c 0.57881,0 1.03506,0.39992 1.03506,0.91059 0,0.51051 -0.45623,0.9171 -1.03506,0.9171 -0.57869,3e-5 -1.03503,-0.40659 -1.03503,-0.9171 0,-0.51047 0.45637,-0.91059 1.03503,-0.91059 z m -0.75336,3.33441 c -1.92438,4.6719 -3.76324,9.28901 -3.1968,16.56059 l 3.1968,0 0,-16.56059 z m 1.50671,0 0,16.56059 3.1903,0 c 0.56534,-7.26898 -1.26628,-11.88969 -3.1903,-16.56059 z m -3.29509,0.49787 c -0.76752,0.43161 -1.42423,1.05519 -2.00455,1.86046 -1.13238,1.57154 -1.89529,3.76082 -2.36486,5.96787 -0.83118,3.90803 -0.767,7.38232 -0.74682,8.23439 l 2.20111,0 c -0.52047,-6.96118 1.12974,-11.67445 2.91512,-16.06272 z m 5.08351,0 c 1.78612,4.38974 3.42931,9.09878 2.90855,16.06272 l 2.20766,0 c 0.0234,-0.85205 0.0809,-4.3267 -0.74679,-8.23439 -0.46739,-2.20684 -1.22459,-4.38361 -2.3583,-5.95476 -0.58287,-0.80786 -1.23792,-1.44183 -2.01112,-1.87357 z"
         style="opacity:1;fill:#ffbf00;fill-opacity:1;stroke:none;stroke-width:0.30000001;stroke-linecap:butt;stroke-linejoin:miter;stroke-miterlimit:4;stroke-dasharray:none;stroke-dashoffset:0;stroke-opacity:1" />
    </g>
  </g>
</svg>
