<?xml version="1.0" encoding="UTF-8" standalone="no"?>
<!-- Created with Inkscape (http://www.inkscape.org/) -->

<svg
   xmlns:dc="http://purl.org/dc/elements/1.1/"
   xmlns:cc="http://creativecommons.org/ns#"
   xmlns:rdf="http://www.w3.org/1999/02/22-rdf-syntax-ns#"
   xmlns:svg="http://www.w3.org/2000/svg"
   xmlns="http://www.w3.org/2000/svg"
   xmlns:sodipodi="http://sodipodi.sourceforge.net/DTD/sodipodi-0.dtd"
   xmlns:inkscape="http://www.inkscape.org/namespaces/inkscape"
   width="35.71875"
   height="38.48238"
   viewBox="0 0 35.71875 38.482381"
   id="svg5799"
   version="1.1"
   inkscape:version="0.91 r"
   sodipodi:docname="event.svg">
  <defs
     id="defs5801">
    <inkscape:path-effect
       effect="spiro"
       id="path-effect5685"
       is_visible="true" />
    <inkscape:path-effect
       effect="spiro"
       id="path-effect5681"
       is_visible="true" />
    <inkscape:path-effect
       effect="spiro"
       id="path-effect5685-5"
       is_visible="true" />
    <inkscape:path-effect
       effect="spiro"
       id="path-effect5681-2"
       is_visible="true" />
    <inkscape:path-effect
       effect="spiro"
       id="path-effect5685-2"
       is_visible="true" />
  </defs>
  <sodipodi:namedview
     id="base"
     pagecolor="#ffffff"
     bordercolor="#666666"
     borderopacity="1.0"
     inkscape:pageopacity="0.0"
     inkscape:pageshadow="2"
     inkscape:zoom="17.592467"
     inkscape:cx="19.223595"
     inkscape:cy="19.24119"
     inkscape:document-units="px"
     inkscape:current-layer="layer1"
     showgrid="false"
     fit-margin-top="5"
     fit-margin-right="5"
     units="px"
     fit-margin-left="5"
     fit-margin-bottom="5" />
  <metadata
     id="metadata5804">
    <rdf:RDF>
      <cc:Work
         rdf:about="">
        <dc:format>image/svg+xml</dc:format>
        <dc:type
           rdf:resource="http://purl.org/dc/dcmitype/StillImage" />
        <dc:title></dc:title>
      </cc:Work>
    </rdf:RDF>
  </metadata>
  <g
     inkscape:label="Layer 1"
     inkscape:groupmode="layer"
     id="layer1"
     transform="translate(-160.99387,-513.12101)">
    <path
       style="opacity:1;fill:#ffbf00;fill-opacity:1;stroke:none;stroke-width:0.30000001;stroke-linecap:butt;stroke-linejoin:miter;stroke-miterlimit:4;stroke-dasharray:none;stroke-dashoffset:0;stroke-opacity:1"
       d="m 180.49071,518.42906 c -0.12922,0.0105 -0.25334,0.0388 -0.36914,0.0859 -0.86934,0.35312 -1.11942,1.10314 -1.34571,2.09766 a 12.859382,12.859382 0 0 1 0.91797,-0.0312 12.859382,12.859382 0 0 1 5.05469,1.03516 c -1.55356,-2.01915 -3.14142,-3.27856 -4.25781,-3.1875 z m 4.25781,3.1875 c 1.1437,1.48646 2.26863,3.37556 3.17383,5.48437 l 0,-0.008 c 2.28268,5.30487 2.65678,10.6793 0.80664,11.43554 -2.3971,0.9767 -3.71163,-3.37454 -10.75781,-2.64062 -1.02135,0.10883 -1.72857,0.77416 -1.39649,1.5918 0.24557,0.60276 1.09399,2.50828 1.35352,3.10546 0.25952,0.59719 1.16738,0.74519 1.39062,1.25586 0.20371,0.4744 0.0445,1.0753 -0.63086,1.33204 -0.67532,0.25394 -2.43575,0.92296 -2.94922,1.12109 -0.51625,0.19813 -1.23433,-0.47256 -1.54687,-1.19531 -0.31255,-0.72276 -1.24185,-2.84864 -1.66602,-3.82813 -0.35719,-0.81205 -1.35617,-0.0531 -2.31054,-1.33398 0,0 -0.84847,0.27426 -1.08008,0.36914 -0.41357,0.16836 -0.87296,0.14533 -1.32813,0.0156 a 12.859382,12.859382 0 0 0 11.88672,7.97852 12.859382,12.859382 0 0 0 12.85938,-12.85938 12.859382,12.859382 0 0 0 -7.80469,-11.82421 z m -16.94141,16.70507 a 12.859382,12.859382 0 0 1 -0.97265,-4.88086 12.859382,12.859382 0 0 1 0.0762,-1.36914 c -0.13477,0.0561 -0.24285,0.11186 -0.38086,0.16797 -1.33947,0.54416 -1.67809,2.71522 -1.11719,4.01563 0.38736,0.89613 1.37859,1.77689 2.39453,2.0664 z m -0.89648,-6.25 c 10.80773,-4.49776 11.27804,-8.87826 11.86523,-11.45898 a 12.859382,12.859382 0 0 0 -11.86523,11.45898 z m 14.1289,-10.57031 c -0.41021,0.16464 -0.6325,3.93218 1.13672,8.05664 1.76922,4.12446 4.54291,6.30527 4.95313,6.14063 0.41021,-0.16465 0.56609,-3.48576 -1.20313,-7.60743 -1.76922,-4.12446 -4.4765,-6.75448 -4.88672,-6.58984 z"
       id="circle5358"
       inkscape:connector-curvature="0" />
  </g>
</svg>
