<?xml version="1.0" encoding="UTF-8" standalone="no"?>
<!-- Created with Inkscape (http://www.inkscape.org/) -->

<svg
   xmlns:dc="http://purl.org/dc/elements/1.1/"
   xmlns:cc="http://creativecommons.org/ns#"
   xmlns:rdf="http://www.w3.org/1999/02/22-rdf-syntax-ns#"
   xmlns:svg="http://www.w3.org/2000/svg"
   xmlns="http://www.w3.org/2000/svg"
   xmlns:sodipodi="http://sodipodi.sourceforge.net/DTD/sodipodi-0.dtd"
   xmlns:inkscape="http://www.inkscape.org/namespaces/inkscape"
   width="35.718773"
   height="38.48238"
   viewBox="0 0 35.718773 38.482381"
   id="svg7129"
   version="1.1"
   inkscape:version="0.91 r"
   sodipodi:docname="food.svg">
  <defs
     id="defs7131" />
  <sodipodi:namedview
     id="base"
     pagecolor="#ffffff"
     bordercolor="#666666"
     borderopacity="1.0"
     inkscape:pageopacity="0.0"
     inkscape:pageshadow="2"
     inkscape:zoom="17.592467"
     inkscape:cx="17.859386"
     inkscape:cy="19.24119"
     inkscape:document-units="px"
     inkscape:current-layer="layer1"
     showgrid="false"
     fit-margin-top="5"
     fit-margin-right="5"
     fit-margin-bottom="5"
     fit-margin-left="5"
     units="px" />
  <metadata
     id="metadata7134">
    <rdf:RDF>
      <cc:Work
         rdf:about="">
        <dc:format>image/svg+xml</dc:format>
        <dc:type
           rdf:resource="http://purl.org/dc/dcmitype/StillImage" />
        <dc:title></dc:title>
      </cc:Work>
    </rdf:RDF>
  </metadata>
  <g
     inkscape:label="Layer 1"
     inkscape:groupmode="layer"
     id="layer1"
     transform="translate(182.8932,-562.36881)">
    <g
       transform="translate(-701.68142,347.69215)"
       id="g7070">
      <circle
         r="12.859382"
         cy="233.89482"
         cx="536.63239"
         id="circle7062"
         style="opacity:1;fill:#ffffff;fill-opacity:1;stroke:none;stroke-width:0.30000001;stroke-linecap:butt;stroke-linejoin:miter;stroke-miterlimit:4;stroke-dasharray:none;stroke-dashoffset:0;stroke-opacity:1" />
      <path
         inkscape:connector-curvature="0"
         id="path4430"
         d="m 536.65902,221.06733 a 12.867143,12.867143 0 0 0 -5.85052,1.40513 c 0.33249,0.21451 0.65994,0.46337 0.98493,0.77483 4.44125,4.25625 2.52144,7.08494 2.52144,7.08494 0,0 1.70364,1.35411 2.34415,1.85169 0.63981,-0.49703 2.34412,-1.85169 2.34412,-1.85169 0,-2e-5 -1.70113,-2.07648 -0.82077,-4.34027 0.52366,-1.34656 2.62071,-2.53302 4.49128,-3.42099 a 12.867143,12.867143 0 0 0 -6.01463,-1.50364 z m 6.01463,1.50364 a 12.867143,12.867143 0 0 1 1.23444,0.73541 l 1.37891,-1.9042 c 0,0 -1.33921,0.56396 -2.61335,1.16879 z m 1.23444,0.73541 -3.74273,5.17417 5.33832,-3.8675 a 12.867143,12.867143 0 0 0 -1.59559,-1.30667 z m 1.59559,1.30667 a 12.867143,12.867143 0 0 1 0.4859,0.47279 l 1.25415,-1.7335 -1.74005,1.26071 z m 0.4859,0.47279 -3.87406,5.34488 5.15447,-3.74273 a 12.867143,12.867143 0 0 0 -1.28041,-1.60215 z m 1.28041,1.60215 a 12.867143,12.867143 0 0 1 0.74855,1.22785 c 0.60484,-1.27411 1.16878,-2.61333 1.16878,-2.61333 l -1.91733,1.38548 z m 0.74855,1.22785 c -0.88797,1.8706 -2.07444,3.96764 -3.42099,4.4913 -2.26371,0.88031 -4.34026,-0.82076 -4.34026,-0.82076 0,0 -1.2608,1.58775 -1.67438,2.12087 2.96635,2.3349 6.6827,5.32299 8.79214,7.32789 a 12.867143,12.867143 0 0 0 2.14715,-7.09807 12.867143,12.867143 0 0 0 -1.50366,-6.02123 z m -0.64349,13.1193 a 12.867143,12.867143 0 0 1 -3.61798,3.61799 c 0.81782,0.86151 1.51477,1.52074 1.87137,1.64812 1.76069,0.62874 2.63961,-0.74857 2.63961,-0.74857 0,0 1.38396,-0.88545 0.75512,-2.64616 -0.12785,-0.35803 -0.78485,-1.05091 -1.64812,-1.87138 z m -3.61798,3.61799 c -1.92803,-2.03104 -4.76451,-5.55222 -7.09805,-8.50982 -2.33447,2.9588 -5.18117,6.47926 -7.11123,8.50982 a 12.867143,12.867143 0 0 0 7.11123,2.14713 12.867143,12.867143 0 0 0 7.09805,-2.14713 z m -14.20928,0 a 12.867143,12.867143 0 0 1 -3.61142,-3.62453 c -0.86478,0.82169 -1.52015,1.51957 -1.6481,1.87792 -0.62884,1.76071 0.75511,2.64616 0.75511,2.64616 0,0 0.8789,1.37731 2.6396,0.74857 0.35636,-0.12755 1.04743,-0.78816 1.86481,-1.64812 z m -3.61142,-3.62453 c 2.10996,-2.00487 5.82694,-4.98733 8.79218,-7.32135 -0.41361,-0.53312 -1.67439,-2.12087 -1.67439,-2.12087 0,0 -1.86987,2.02075 -6.55965,-2.69871 -0.4322,-0.43493 -0.75057,-0.87174 -1.01778,-1.30667 a 12.867143,12.867143 0 0 0 -1.6875,6.35607 12.867143,12.867143 0 0 0 2.14714,7.09153 z m -0.45964,-13.4476 a 12.867143,12.867143 0 0 1 5.33177,-5.10854 c -3.79142,-2.44444 -7.75169,1.16904 -5.33177,5.10854 z"
         style="fill:#d743e3;fill-opacity:1;fill-rule:evenodd;stroke:none;stroke-width:1px;stroke-linecap:butt;stroke-linejoin:miter;stroke-opacity:1" />
    </g>
  </g>
</svg>
