<?xml version="1.0" encoding="UTF-8" standalone="no"?>
<!-- Created with Inkscape (http://www.inkscape.org/) -->

<svg
   xmlns:dc="http://purl.org/dc/elements/1.1/"
   xmlns:cc="http://creativecommons.org/ns#"
   xmlns:rdf="http://www.w3.org/1999/02/22-rdf-syntax-ns#"
   xmlns:svg="http://www.w3.org/2000/svg"
   xmlns="http://www.w3.org/2000/svg"
   xmlns:sodipodi="http://sodipodi.sourceforge.net/DTD/sodipodi-0.dtd"
   xmlns:inkscape="http://www.inkscape.org/namespaces/inkscape"
   width="35.718773"
   height="38.48238"
   viewBox="0 0 35.718773 38.482381"
   id="svg7129"
   version="1.1"
   inkscape:version="0.91 r"
   sodipodi:docname="going.svg">
  <defs
     id="defs7131" />
  <sodipodi:namedview
     id="base"
     pagecolor="#ffffff"
     bordercolor="#666666"
     borderopacity="1.0"
     inkscape:pageopacity="0.0"
     inkscape:pageshadow="2"
     inkscape:zoom="17.592467"
     inkscape:cx="17.859386"
     inkscape:cy="19.24119"
     inkscape:document-units="px"
     inkscape:current-layer="layer1"
     showgrid="false"
     fit-margin-top="5"
     fit-margin-right="5"
     fit-margin-bottom="5"
     fit-margin-left="5"
     units="px" />
  <metadata
     id="metadata7134">
    <rdf:RDF>
      <cc:Work
         rdf:about="">
        <dc:format>image/svg+xml</dc:format>
        <dc:type
           rdf:resource="http://purl.org/dc/dcmitype/StillImage" />
        <dc:title></dc:title>
      </cc:Work>
    </rdf:RDF>
  </metadata>
  <g
     inkscape:label="Layer 1"
     inkscape:groupmode="layer"
     id="layer1"
     transform="translate(182.8932,-562.36881)">
    <g
       transform="translate(-566.32745,349.66435)"
       id="g7046">
      <circle
         r="12.859382"
         cy="233.32745"
         cx="401.29364"
         id="circle5669"
         style="opacity:1;fill:#ffffff;fill-opacity:1;stroke:none;stroke-width:0.30000001;stroke-linecap:butt;stroke-linejoin:miter;stroke-miterlimit:4;stroke-dasharray:none;stroke-dashoffset:0;stroke-opacity:1" />
      <path
         inkscape:connector-curvature="0"
         id="circle5667"
         d="m 410.14904,217.70446 c -0.49504,0 -0.82732,0.30893 -0.99609,0.92774 -0.43658,1.72375 -0.67852,2.72175 -0.95898,3.86133 a 12.859382,12.859382 0 0 1 1.91992,1.5 c 0.22295,-0.72243 0.54607,-1.7425 0.69336,-2.24024 0.0563,-0.16877 0.26496,-0.54385 0.625,-1.12891 0.27002,-0.45004 0.40429,-0.86113 0.40429,-1.23242 0,-0.45004 -0.16832,-0.8441 -0.50586,-1.18164 -0.33753,-0.33753 -0.73159,-0.50586 -1.18164,-0.50586 z m -0.0351,6.28907 c -0.27094,0.87791 -0.45913,1.51291 -0.8418,2.72265 -1.29388,3.71287 -3.0151,7.81988 -5.16406,12.32031 -0.56256,1.28263 -1.37209,2.91872 -2.42969,4.91016 -0.30378,0.45005 -0.77666,0.67578 -1.41797,0.67578 -0.15751,0 -0.30444,-0.0233 -0.43945,-0.0684 -1.17012,-2.75652 -2.13727,-6.13085 -2.90234,-10.125 -0.21378,-1.11385 -0.60151,-3.50597 -1.16407,-7.17383 -0.33753,-2.26147 -0.50781,-3.40328 -0.50781,-3.42578 0,-0.25878 0.12552,-0.53364 0.37305,-0.82617 0.25877,-0.30378 0.51661,-0.45508 0.77539,-0.45508 0.18001,0 0.35467,0.0788 0.52344,0.23633 0.49504,1.5414 1.08516,4.35968 1.77148,8.45508 0.61881,3.6116 1.33883,6.3895 2.16016,8.33594 3.09405,-5.31052 5.38399,-10.36766 6.86914,-15.17188 0.10054,-0.42078 0.33586,-1.3464 0.47461,-1.91015 a 12.859382,12.859382 0 0 0 -6.90039,-2.02539 12.859382,12.859382 0 0 0 -12.85938,12.85937 12.859382,12.859382 0 0 0 12.85938,12.85937 12.859382,12.859382 0 0 0 12.85937,-12.85937 12.859382,12.859382 0 0 0 -4.03906,-9.33398 z"
         style="opacity:1;fill:#d743e3;fill-opacity:1;stroke:none;stroke-width:0.30000001;stroke-linecap:butt;stroke-linejoin:miter;stroke-miterlimit:4;stroke-dasharray:none;stroke-dashoffset:0;stroke-opacity:1" />
    </g>
  </g>
</svg>
