<?xml version="1.0" encoding="UTF-8" standalone="no"?>
<!-- Created with Inkscape (http://www.inkscape.org/) -->

<svg
   xmlns:dc="http://purl.org/dc/elements/1.1/"
   xmlns:cc="http://creativecommons.org/ns#"
   xmlns:rdf="http://www.w3.org/1999/02/22-rdf-syntax-ns#"
   xmlns:svg="http://www.w3.org/2000/svg"
   xmlns="http://www.w3.org/2000/svg"
   xmlns:sodipodi="http://sodipodi.sourceforge.net/DTD/sodipodi-0.dtd"
   xmlns:inkscape="http://www.inkscape.org/namespaces/inkscape"
   width="107.3933"
   height="67.103333"
   viewBox="0 0 107.39331 67.103333"
   id="svg5591"
   version="1.1"
   inkscape:version="0.91 r"
   sodipodi:docname="logo.svg">
  <defs
     id="defs5593" />
  <sodipodi:namedview
     id="base"
     pagecolor="#ffffff"
     bordercolor="#666666"
     borderopacity="1.0"
     inkscape:pageopacity="0.0"
     inkscape:pageshadow="2"
     inkscape:zoom="0.73924242"
     inkscape:cx="-10.94261"
     inkscape:cy="20.573597"
     inkscape:document-units="px"
     inkscape:current-layer="layer1"
     showgrid="false"
     fit-margin-top="5"
     fit-margin-left="5"
     fit-margin-right="5"
     fit-margin-bottom="5"
     units="px" />
  <metadata
     id="metadata5596">
    <rdf:RDF>
      <cc:Work
         rdf:about="">
        <dc:format>image/svg+xml</dc:format>
        <dc:type
           rdf:resource="http://purl.org/dc/dcmitype/StillImage" />
        <dc:title></dc:title>
      </cc:Work>
    </rdf:RDF>
  </metadata>
  <g
     inkscape:label="Layer 1"
     inkscape:groupmode="layer"
     id="layer1"
     transform="translate(-385.94262,-485.83247)">
    <g
       transform="translate(593.91493,79.219793)"
       id="g4809">
      <circle
         style="opacity:1;fill:#ffbf00;fill-opacity:1;stroke:none;stroke-width:1;stroke-linecap:butt;stroke-linejoin:miter;stroke-miterlimit:4;stroke-dasharray:none;stroke-dashoffset:0;stroke-opacity:1"
         id="circle4811"
         cx="-184.55276"
         cy="430.03223"
         r="18.41955" />
      <text
         sodipodi:linespacing="125%"
         id="text4813"
         y="448.51266"
         x="-149.12881"
         style="font-style:normal;font-variant:normal;font-weight:normal;font-stretch:normal;font-size:45px;line-height:125%;font-family:'Domestic Manners';-inkscape-font-specification:'Domestic Manners';text-align:center;letter-spacing:0px;word-spacing:0px;text-anchor:middle;fill:#d743e3;fill-opacity:1;stroke:none;stroke-width:1px;stroke-linecap:butt;stroke-linejoin:miter;stroke-opacity:1"
         xml:space="preserve"><tspan
           y="448.51266"
           x="-149.12881"
           id="tspan4815"
           sodipodi:role="line">Vmap</tspan></text>
      <path
         style="fill:#d743e3;fill-opacity:1;fill-rule:evenodd;stroke:none;stroke-width:1px;stroke-linecap:butt;stroke-linejoin:miter;stroke-opacity:1"
         d="m -185.76721,444.27623 c -1.69813,0.0475 -3.26331,0.61828 -3.8427,1.86296 -11.18913,4.5439 -9.30859,12.74424 -9.30859,12.74424 0,0 7.64373,1.09983 9.22448,-6.48332 0,0 -1.65759,8.23171 2.34961,10.33672 3.24452,1.70437 11.78363,2.43037 11.78363,2.43037 0,0 -0.2945,4.19859 4.86073,3.46213 5.15522,-0.73646 4.34415,-7.88048 4.34415,-7.88048 l -13.76199,-13.06269 c 0.38105,-2.11657 -2.81911,-3.48903 -5.64932,-3.40993 z"
         id="path4831"
         inkscape:connector-curvature="0"
         sodipodi:nodetypes="ccccscsccc" />
      <g
         style="font-style:normal;font-variant:normal;font-weight:normal;font-stretch:normal;font-size:45px;line-height:125%;font-family:'Domestic Manners';-inkscape-font-specification:'Domestic Manners';text-align:center;letter-spacing:0px;word-spacing:0px;text-anchor:middle;fill:#000000;fill-opacity:1;stroke:none;stroke-width:1px;stroke-linecap:butt;stroke-linejoin:miter;stroke-opacity:1"
         id="text4898"
         transform="matrix(-0.78038859,0,0,0.78038859,-320.27296,94.355822)">
        <path
           d="m -174.89021,459.15205 c -0.54199,-0.24902 -1.01806,-0.97412 -1.42822,-2.17529 -0.60059,-0.26367 -1.25977,-0.39551 -1.97754,-0.39551 -1.64062,0 -2.43163,0.64453 -2.37304,1.9336 l 0.022,0.35156 c 0.71777,0.76172 1.75781,1.14258 3.12012,1.14258 1.12793,0 2.00683,-0.28565 2.63671,-0.85694 z"
           id="path4903"
           inkscape:connector-curvature="0"
           sodipodi:nodetypes="ccsccscc"
           style="fill:#ffffff" />
      </g>
    </g>
    <g
       id="g5617"
       transform="translate(593.91493,79.219793)">
      <circle
         r="18.41955"
         cy="430.03223"
         cx="-184.55276"
         id="circle5619"
         style="opacity:1;fill:#ffbf00;fill-opacity:1;stroke:none;stroke-width:1;stroke-linecap:butt;stroke-linejoin:miter;stroke-miterlimit:4;stroke-dasharray:none;stroke-dashoffset:0;stroke-opacity:1" />
      <text
         xml:space="preserve"
         style="font-style:normal;font-variant:normal;font-weight:normal;font-stretch:normal;font-size:45px;line-height:125%;font-family:'Domestic Manners';-inkscape-font-specification:'Domestic Manners';text-align:center;letter-spacing:0px;word-spacing:0px;text-anchor:middle;fill:#d743e3;fill-opacity:1;stroke:none;stroke-width:1px;stroke-linecap:butt;stroke-linejoin:miter;stroke-opacity:1"
         x="-149.12881"
         y="448.51266"
         id="text5621"
         sodipodi:linespacing="125%"><tspan
           sodipodi:role="line"
           id="tspan5623"
           x="-149.12881"
           y="448.51266">Vmap</tspan></text>
      <path
         sodipodi:nodetypes="ccccscsccc"
         inkscape:connector-curvature="0"
         id="path5625"
         d="m -185.76721,444.27623 c -1.69813,0.0475 -3.26331,0.61828 -3.8427,1.86296 -11.18913,4.5439 -9.30859,12.74424 -9.30859,12.74424 0,0 7.64373,1.09983 9.22448,-6.48332 0,0 -1.65759,8.23171 2.34961,10.33672 3.24452,1.70437 11.78363,2.43037 11.78363,2.43037 0,0 -0.2945,4.19859 4.86073,3.46213 5.15522,-0.73646 4.34415,-7.88048 4.34415,-7.88048 l -13.76199,-13.06269 c 0.38105,-2.11657 -2.81911,-3.48903 -5.64932,-3.40993 z"
         style="fill:#d743e3;fill-opacity:1;fill-rule:evenodd;stroke:none;stroke-width:1px;stroke-linecap:butt;stroke-linejoin:miter;stroke-opacity:1" />
      <g
         transform="matrix(-0.78038859,0,0,0.78038859,-320.27296,94.355822)"
         id="g5627"
         style="font-style:normal;font-variant:normal;font-weight:normal;font-stretch:normal;font-size:45px;line-height:125%;font-family:'Domestic Manners';-inkscape-font-specification:'Domestic Manners';text-align:center;letter-spacing:0px;word-spacing:0px;text-anchor:middle;fill:#000000;fill-opacity:1;stroke:none;stroke-width:1px;stroke-linecap:butt;stroke-linejoin:miter;stroke-opacity:1">
        <path
           style="fill:#ffffff"
           sodipodi:nodetypes="ccsccscc"
           inkscape:connector-curvature="0"
           id="path5629"
           d="m -174.89021,459.15205 c -0.54199,-0.24902 -1.01806,-0.97412 -1.42822,-2.17529 -0.60059,-0.26367 -1.25977,-0.39551 -1.97754,-0.39551 -1.64062,0 -2.43163,0.64453 -2.37304,1.9336 l 0.022,0.35156 c 0.71777,0.76172 1.75781,1.14258 3.12012,1.14258 1.12793,0 2.00683,-0.28565 2.63671,-0.85694 z" />
      </g>
    </g>
  </g>
</svg>
