<?xml version="1.0" encoding="UTF-8" standalone="no"?>
<!-- Created with Inkscape (http://www.inkscape.org/) -->

<svg
   xmlns:dc="http://purl.org/dc/elements/1.1/"
   xmlns:cc="http://creativecommons.org/ns#"
   xmlns:rdf="http://www.w3.org/1999/02/22-rdf-syntax-ns#"
   xmlns:svg="http://www.w3.org/2000/svg"
   xmlns="http://www.w3.org/2000/svg"
   xmlns:sodipodi="http://sodipodi.sourceforge.net/DTD/sodipodi-0.dtd"
   xmlns:inkscape="http://www.inkscape.org/namespaces/inkscape"
   width="35.71875"
   height="38.48238"
   viewBox="0 0 35.71875 38.482381"
   id="svg5799"
   version="1.1"
   inkscape:version="0.91 r"
   sodipodi:docname="photo.svg">
  <defs
     id="defs5801">
    <inkscape:path-effect
       effect="spiro"
       id="path-effect5685"
       is_visible="true" />
    <inkscape:path-effect
       effect="spiro"
       id="path-effect5681"
       is_visible="true" />
    <inkscape:path-effect
       effect="spiro"
       id="path-effect5685-5"
       is_visible="true" />
    <inkscape:path-effect
       effect="spiro"
       id="path-effect5681-2"
       is_visible="true" />
    <inkscape:path-effect
       effect="spiro"
       id="path-effect5685-2"
       is_visible="true" />
  </defs>
  <sodipodi:namedview
     id="base"
     pagecolor="#ffffff"
     bordercolor="#666666"
     borderopacity="1.0"
     inkscape:pageopacity="0.0"
     inkscape:pageshadow="2"
     inkscape:zoom="17.592467"
     inkscape:cx="19.223595"
     inkscape:cy="19.24119"
     inkscape:document-units="px"
     inkscape:current-layer="layer1"
     showgrid="false"
     fit-margin-top="5"
     fit-margin-right="5"
     units="px"
     fit-margin-left="5"
     fit-margin-bottom="5" />
  <metadata
     id="metadata5804">
    <rdf:RDF>
      <cc:Work
         rdf:about="">
        <dc:format>image/svg+xml</dc:format>
        <dc:type
           rdf:resource="http://purl.org/dc/dcmitype/StillImage" />
        <dc:title></dc:title>
      </cc:Work>
    </rdf:RDF>
  </metadata>
  <g
     inkscape:label="Layer 1"
     inkscape:groupmode="layer"
     id="layer1"
     transform="translate(-160.99387,-513.12101)">
    <g
       id="g4360"
       transform="translate(-307.32559,251.95198)">
      <circle
         style="opacity:1;fill:#ffbf00;fill-opacity:1;stroke:none;stroke-width:0.30000001;stroke-linecap:butt;stroke-linejoin:miter;stroke-miterlimit:4;stroke-dasharray:none;stroke-dashoffset:0;stroke-opacity:1"
         id="circle4252"
         cx="486.17883"
         cy="280.41022"
         r="12.859382" />
      <g
         style="fill:#ffffff"
         transform="matrix(0.04074536,0,0,0.04074536,475.76839,268.95897)"
         id="g4345">
        <circle
           style="fill:#ffffff"
           cx="255.811"
           cy="285.30899"
           r="75.217003"
           id="circle4347" />
        <path
           style="fill:#ffffff"
           inkscape:connector-curvature="0"
           d="M 477,137 352.718,137 349,108 C 349,91.432 335.568,78 319,78 l -128,0 c -16.568,0 -30,13.432 -30,30 L 157.282,137 34,137 c -11.046,0 -20,8.454 -20,19.5 l 0,258 c 0,11.046 8.954,20.5 20,20.5 l 443,0 c 11.046,0 20,-9.454 20,-20.5 l 0,-258 C 497,145.454 488.046,137 477,137 Z M 255.595,408.562 c -67.928,0 -122.994,-55.066 -122.994,-122.993 0,-67.928 55.066,-122.994 122.994,-122.994 67.928,0 122.994,55.066 122.994,122.994 0,67.926 -55.066,122.993 -122.994,122.993 z M 474,190 l -105,0 0,-31 105,0 0,31 z"
           id="path4349" />
      </g>
    </g>
  </g>
</svg>
