<?xml version="1.0" encoding="UTF-8" standalone="no"?>
<!-- Created with Inkscape (http://www.inkscape.org/) -->

<svg
   xmlns:dc="http://purl.org/dc/elements/1.1/"
   xmlns:cc="http://creativecommons.org/ns#"
   xmlns:rdf="http://www.w3.org/1999/02/22-rdf-syntax-ns#"
   xmlns:svg="http://www.w3.org/2000/svg"
   xmlns="http://www.w3.org/2000/svg"
   xmlns:sodipodi="http://sodipodi.sourceforge.net/DTD/sodipodi-0.dtd"
   xmlns:inkscape="http://www.inkscape.org/namespaces/inkscape"
   width="35.718773"
   height="38.48238"
   viewBox="0 0 35.718773 38.482381"
   id="svg7129"
   version="1.1"
   inkscape:version="0.91 r"
   sodipodi:docname="text.svg">
  <defs
     id="defs7131" />
  <sodipodi:namedview
     id="base"
     pagecolor="#ffffff"
     bordercolor="#666666"
     borderopacity="1.0"
     inkscape:pageopacity="0.0"
     inkscape:pageshadow="2"
     inkscape:zoom="17.592467"
     inkscape:cx="17.859386"
     inkscape:cy="19.24119"
     inkscape:document-units="px"
     inkscape:current-layer="layer1"
     showgrid="false"
     fit-margin-top="5"
     fit-margin-right="5"
     fit-margin-bottom="5"
     fit-margin-left="5"
     units="px" />
  <metadata
     id="metadata7134">
    <rdf:RDF>
      <cc:Work
         rdf:about="">
        <dc:format>image/svg+xml</dc:format>
        <dc:type
           rdf:resource="http://purl.org/dc/dcmitype/StillImage" />
        <dc:title></dc:title>
      </cc:Work>
    </rdf:RDF>
  </metadata>
  <g
     inkscape:label="Layer 1"
     inkscape:groupmode="layer"
     id="layer1"
     transform="translate(182.8932,-562.36881)">
    <g
       transform="translate(-624.97122,303.0592)"
       id="g7114">
      <circle
         style="opacity:1;fill:#ffffff;fill-opacity:1;stroke:none;stroke-width:0.30000001;stroke-linecap:butt;stroke-linejoin:miter;stroke-miterlimit:4;stroke-dasharray:none;stroke-dashoffset:0;stroke-opacity:1"
         id="circle7104"
         cx="459.93741"
         cy="279.02734"
         r="12.859382" />
      <path
         inkscape:connector-curvature="0"
         id="circle4545"
         d="m 457.14642,265.21486 c -0.95703,0 -1.75781,0.30273 -2.40234,0.90821 -0.4919,0.44717 -0.79367,0.98179 -0.91016,1.59961 a 12.859382,12.859382 0 0 1 5.89453,-1.54688 c -0.71036,-0.6278 -1.56446,-0.96094 -2.58203,-0.96094 z m 2.58203,0.96094 c 0.14862,0.13135 0.30038,0.25719 0.43555,0.41602 0.80078,0.89843 1.20117,2.07031 1.20117,3.51562 0,2.22657 -0.72266,4.30664 -2.16797,6.24024 -0.50781,0.68359 -1.75781,1.77734 -3.75,3.28124 -0.0781,0.0391 -0.22461,0.13673 -0.43945,0.29297 -0.19532,0.13672 -0.33203,0.22461 -0.41016,0.26368 l -1.17187,-1.43555 c 3.45702,-2.20703 5.18554,-4.53125 5.18554,-6.97266 0,-0.3125 -0.11719,-0.46875 -0.35156,-0.46875 l -0.14648,0 -0.67383,0 c -1.13282,0 -2.03125,-0.26367 -2.69531,-0.79101 -0.64453,-0.52735 -0.9668,-1.25977 -0.9668,-2.19727 0,-0.20814 0.0205,-0.40595 0.0566,-0.59765 a 12.859382,12.859382 0 0 0 -6.75586,11.30468 12.859382,12.859382 0 0 0 12.85937,12.85938 12.859382,12.859382 0 0 0 12.85938,-12.85938 12.859382,12.859382 0 0 0 -2.2793,-7.2832 c -0.27035,1.61709 -0.94794,3.15161 -2.0332,4.60352 -0.50781,0.68359 -1.75781,1.77734 -3.75,3.28124 -0.0781,0.0391 -0.22461,0.13673 -0.43945,0.29297 -0.19532,0.13672 -0.33203,0.22461 -0.41016,0.26368 l -1.17188,-1.43555 c 3.45704,-2.20703 5.18555,-4.53125 5.18555,-6.97266 0,-0.3125 -0.11719,-0.46875 -0.35156,-0.46875 l -0.14649,0 -0.67382,0 c -1.13282,0 -2.03125,-0.26367 -2.69532,-0.79101 -0.64452,-0.52735 -0.96679,-1.25977 -0.96679,-2.19727 0,-0.61541 0.16642,-1.15518 0.48242,-1.62695 a 12.859382,12.859382 0 0 0 -3.60938,-0.52539 12.859382,12.859382 0 0 0 -0.20898,0.008 z m 3.81836,0.51758 a 12.859382,12.859382 0 0 1 6.9707,5.05078 c 0.0897,-0.53649 0.13477,-1.08205 0.13477,-1.63672 0,-1.44531 -0.40039,-2.61719 -1.20117,-3.51562 -0.78126,-0.91798 -1.78712,-1.37696 -3.01758,-1.37696 -0.95704,0 -1.75781,0.30273 -2.40235,0.90821 -0.19322,0.17566 -0.34907,0.36831 -0.48437,0.57031 z"
         style="opacity:1;fill:#d743e3;fill-opacity:1;stroke:none;stroke-width:0.30000001;stroke-linecap:butt;stroke-linejoin:miter;stroke-miterlimit:4;stroke-dasharray:none;stroke-dashoffset:0;stroke-opacity:1" />
    </g>
  </g>
</svg>
