<?xml version="1.0" encoding="UTF-8" standalone="no"?>
<!-- Created with Inkscape (http://www.inkscape.org/) -->

<svg
   xmlns:dc="http://purl.org/dc/elements/1.1/"
   xmlns:cc="http://creativecommons.org/ns#"
   xmlns:rdf="http://www.w3.org/1999/02/22-rdf-syntax-ns#"
   xmlns:svg="http://www.w3.org/2000/svg"
   xmlns="http://www.w3.org/2000/svg"
   xmlns:sodipodi="http://sodipodi.sourceforge.net/DTD/sodipodi-0.dtd"
   xmlns:inkscape="http://www.inkscape.org/namespaces/inkscape"
   width="35.718773"
   height="38.48238"
   viewBox="0 0 35.718773 38.482381"
   id="svg7129"
   version="1.1"
   inkscape:version="0.91 r"
   sodipodi:docname="vivisection.svg">
  <defs
     id="defs7131" />
  <sodipodi:namedview
     id="base"
     pagecolor="#ffffff"
     bordercolor="#666666"
     borderopacity="1.0"
     inkscape:pageopacity="0.0"
     inkscape:pageshadow="2"
     inkscape:zoom="17.592467"
     inkscape:cx="17.859386"
     inkscape:cy="19.24119"
     inkscape:document-units="px"
     inkscape:current-layer="layer1"
     showgrid="false"
     fit-margin-top="5"
     fit-margin-right="5"
     fit-margin-bottom="5"
     fit-margin-left="5"
     units="px" />
  <metadata
     id="metadata7134">
    <rdf:RDF>
      <cc:Work
         rdf:about="">
        <dc:format>image/svg+xml</dc:format>
        <dc:type
           rdf:resource="http://purl.org/dc/dcmitype/StillImage" />
        <dc:title></dc:title>
      </cc:Work>
    </rdf:RDF>
  </metadata>
  <g
     inkscape:label="Layer 1"
     inkscape:groupmode="layer"
     id="layer1"
     transform="translate(182.8932,-562.36881)">
    <g
       transform="translate(-637.24818,347.6762)"
       id="g7058">
      <circle
         r="12.859382"
         cy="233.91483"
         cx="472.96637"
         id="circle7050"
         style="opacity:1;fill:#ffffff;fill-opacity:1;stroke:none;stroke-width:0.30000001;stroke-linecap:butt;stroke-linejoin:miter;stroke-miterlimit:4;stroke-dasharray:none;stroke-dashoffset:0;stroke-opacity:1" />
      <path
         inkscape:connector-curvature="0"
         d="m 485.90495,233.86349 a 12.867143,12.867143 0 0 1 -12.86715,12.86715 12.867143,12.867143 0 0 1 -12.8671,-12.86715 12.867143,12.867143 0 0 1 12.8671,-12.86715 12.867143,12.867143 0 0 1 12.86715,12.86715 z m -29.6955,-15.10419 10.26953,10.60442 -1.8057,1.93703 12.13431,11.33327 c -0.43921,0.62232 -0.5394,1.31687 -0.1709,1.66126 0.42608,0.39802 1.28166,0.1684 1.91734,-0.51219 l 1.19505,-1.2804 3.07956,2.87598 -2.43606,2.60679 1.20159,1.12283 6.62531,-7.08491 -1.20819,-1.12284 -2.4295,2.60021 -3.07954,-2.86944 1.19503,-1.28041 c 0.63553,-0.68051 0.80037,-1.54556 0.37429,-1.94357 -0.369,-0.34474 -1.05019,-0.19947 -1.64156,0.28239 l -12.13432,-11.33981 -1.8057,1.93703 -11.28074,-9.52759 z"
         style="opacity:1;fill:#ffbf00;fill-opacity:1;stroke:none;stroke-width:0.30000001;stroke-linecap:butt;stroke-linejoin:miter;stroke-miterlimit:4;stroke-dasharray:none;stroke-dashoffset:0;stroke-opacity:1"
         id="circle5076" />
    </g>
  </g>
</svg>
