<?xml version="1.0" encoding="UTF-8"?>
<!-- Generator: Adobe Illustrator 16.0.0, SVG Export Plug-In . SVG Version: 6.00 Build 0)  -->
<!DOCTYPE svg PUBLIC "-//W3C//DTD SVG 1.1//EN" "http://www.w3.org/Graphics/SVG/1.1/DTD/svg11.dtd">
<svg version="1.1" id="Layer_1" xmlns="http://www.w3.org/2000/svg" xmlns:xlink="http://www.w3.org/1999/xlink" x="0px" y="0px" width="512px" height="512px" viewBox="0 0 512 512" enable-background="new 0 0 512 512" xml:space="preserve">
<path d="M304,0h-96C93.125,0,0,114.625,0,256s93.125,256,208,256h96c114.875,0,208-114.625,208-256S418.875,0,304,0z M488.844,192  h-80c-2.313-11-5.219-21.625-8.656-32h79.688C483.469,170.313,486.406,181,488.844,192z M446.719,96  c7.156,9.969,13.656,20.625,19.406,32h-78.688c-5.344-11.25-11.313-21.906-17.938-32H446.719z M372.375,32  c16.688,8,32.25,18.813,46.344,32h-73.375v0.875c-11.5-12.5-23.906-23.688-37.469-32.875H372.375z M208,496  C102.125,496,16,388.344,16,256S102.125,16,208,16s192,107.656,192,240S313.875,496,208,496z M446.719,416H369.5  c6.625-10.094,12.594-20.75,17.938-32h78.688C460.375,395.375,453.875,406.031,446.719,416z M287.563,265.844  c6.125,10.313,9.188,22.344,9.188,36.125c0,21.156-6.313,38.781-18.938,52.875c-12.594,14.125-30.781,22.438-54.563,24.938V416  h-30.313v-36.031c-39.656-4.063-64.188-27.125-73.656-69.125l46.875-12.219c4.344,26.406,18.719,39.594,43.125,39.594  c11.406,0,19.844-2.813,25.219-8.469s8.063-12.469,8.063-20.469c0-8.281-2.688-14.563-8.063-18.813  c-5.375-4.281-17.344-9.688-35.875-16.25c-16.656-5.781-29.688-11.469-39.063-17.156c-9.375-5.625-17-13.531-22.844-23.688  c-5.844-10.188-8.781-22.063-8.781-35.563c0-17.719,5.25-33.688,15.688-47.875c10.438-14.156,26.875-22.813,49.313-25.969V96h30.313  v27.969c33.875,4.063,55.813,23.219,65.813,57.5l-41.781,17.125c-8.156-23.5-20.719-35.25-37.781-35.25  c-8.563,0-15.438,2.625-20.594,7.875c-5.188,5.25-7.781,11.625-7.781,19.094c0,7.625,2.5,13.469,7.5,17.563  c4.969,4.063,15.688,9.094,32.063,15.125c18,6.563,32.125,12.781,42.344,18.625C273.281,247.469,281.438,255.563,287.563,265.844z"/>
</svg>