<svg xmlns="http://www.w3.org/2000/svg" width="468.93" height="468.93" viewBox="0 0 468.934 468.934" enable-background="new 0 0 468.934 468.934"><defs><linearGradient id="0" gradientUnits="userSpaceOnUse" y1="0" x2="0" y2="467.22"><stop stop-color="#42bce8"/><stop offset="1" stop-color="#23a7dc"/></linearGradient></defs><circle fill="url(#0)" cx="234.47" cy="234.47" r="234.47"/><path fill="#fff" d="m348.56 134.87l-41.878 211.14c0 0-5.857 14.642-21.964 7.613l-96.64-74.09-35.14-16.984-59.16-19.915c0 0-9.08-3.221-9.957-10.249-.879-7.03 10.25-10.836 10.25-10.836l235.16-92.25c.0001.002 19.329-8.49 19.329 5.566"/><path fill="#d2e5f1" d="m180.65 343.65c0 0-2.821-.264-6.336-11.394-3.514-11.128-21.378-69.7-21.378-69.7l142.03-90.2c0 0 8.199-4.978 7.907 0 0 0 1.465.879-2.928 4.979-4.393 4.1-111.57 100.45-111.57 100.45"/><path fill="#b5cfe4" d="m225.13 307.95l-38.22 34.852c0 0-2.988 2.267-6.257.846l7.319-64.736"/></svg>