<?xml version="1.0" encoding="UTF-8" standalone="no"?>
<!-- Created with Inkscape (http://www.inkscape.org/) -->

<svg
   xmlns:dc="http://purl.org/dc/elements/1.1/"
   xmlns:cc="http://creativecommons.org/ns#"
   xmlns:rdf="http://www.w3.org/1999/02/22-rdf-syntax-ns#"
   xmlns:svg="http://www.w3.org/2000/svg"
   xmlns="http://www.w3.org/2000/svg"
   xmlns:sodipodi="http://sodipodi.sourceforge.net/DTD/sodipodi-0.dtd"
   xmlns:inkscape="http://www.inkscape.org/namespaces/inkscape"
   width="50.099838mm"
   height="72.158661mm"
   viewBox="0 0 177.51911 255.68029"
   id="svg3936"
   version="1.1"
   inkscape:version="0.91 r"
   sodipodi:docname="logo-v-only.svg">
  <defs
     id="defs3938" />
  <sodipodi:namedview
     id="base"
     pagecolor="#ffffff"
     bordercolor="#666666"
     borderopacity="1.0"
     inkscape:pageopacity="0.0"
     inkscape:pageshadow="2"
     inkscape:zoom="2.647838"
     inkscape:cx="88.759556"
     inkscape:cy="127.84015"
     inkscape:document-units="px"
     inkscape:current-layer="layer1"
     showgrid="false"
     fit-margin-top="5"
     fit-margin-right="5"
     fit-margin-bottom="5"
     fit-margin-left="5" />
  <metadata
     id="metadata3941">
    <rdf:RDF>
      <cc:Work
         rdf:about="">
        <dc:format>image/svg+xml</dc:format>
        <dc:type
           rdf:resource="http://purl.org/dc/dcmitype/StillImage" />
        <dc:title></dc:title>
      </cc:Work>
    </rdf:RDF>
  </metadata>
  <g
     inkscape:label="Layer 1"
     inkscape:groupmode="layer"
     id="layer1"
     transform="translate(697.49085,38.626126)">
    <g
       id="g5746"
       transform="matrix(3.8569359,0,0,3.8569359,103.07689,-1608.4733)">
      <circle
         r="18.41955"
         cy="430.03223"
         cx="-184.55276"
         id="circle5748"
         style="opacity:1;fill:#ffbf00;fill-opacity:1;stroke:none;stroke-width:1;stroke-linecap:butt;stroke-linejoin:miter;stroke-miterlimit:4;stroke-dasharray:none;stroke-dashoffset:0;stroke-opacity:1" />
      <path
         inkscape:connector-curvature="0"
         id="path5750"
         style="font-style:normal;font-variant:normal;font-weight:normal;font-stretch:normal;font-size:medium;line-height:125%;font-family:'Domestic Manners';-inkscape-font-specification:'Domestic Manners';text-align:center;letter-spacing:0px;word-spacing:0px;text-anchor:middle;fill:#d743e3;fill-opacity:1;stroke:none;stroke-width:1px;stroke-linecap:butt;stroke-linejoin:miter;stroke-opacity:1"
         d="m -169.89297,416.103 q 0,0.72509 -0.52735,1.604 -0.70312,1.14258 -0.81299,1.47217 -0.6372,2.15332 -1.99951,6.45996 -2.52685,7.25098 -6.72363,16.04004 -1.09863,2.50488 -3.16406,6.39404 -0.59327,0.87891 -1.84571,0.87891 -0.30761,0 -0.57129,-0.0879 -2.28515,-5.3833 -3.77929,-13.1836 -0.41748,-2.17529 -1.51612,-9.33838 -0.65918,-4.4165 -0.65918,-4.46044 0,-0.50538 0.4834,-1.07666 0.50537,-0.59327 1.01074,-0.59327 0.35157,0 0.68116,0.30762 0.96679,3.01025 2.30713,11.0083 1.20849,7.05322 2.8125,10.85449 6.04248,-10.37109 8.94287,-19.75341 0.59326,-2.48291 1.86767,-7.51465 0.32959,-1.2085 1.29639,-1.2085 0.87891,0 1.53809,0.65918 0.65918,0.65918 0.65918,1.53809 z" />
      <path
         inkscape:connector-curvature="0"
         id="path5760"
         transform="translate(-603.82668,268.04818)"
         d="m 418.05859,176.22852 c -1.69813,0.0475 -3.2624,0.6186 -3.84179,1.86328 -11.18913,4.5439 -9.3086,12.74414 -9.3086,12.74414 0,0 7.64386,1.09877 9.22461,-6.48438 0,0 -1.65759,8.23288 2.34961,10.33789 3.24452,1.70437 11.7832,2.42969 11.7832,2.42969 0,0 -0.2939,4.19935 4.86133,3.46289 5.15522,-0.73646 4.34375,-7.88086 4.34375,-7.88086 l -13.76172,-13.0625 c 0.38105,-2.11657 -2.82018,-3.48925 -5.65039,-3.41015 z m 4.63477,6.39062 c 1.28032,0 1.89728,0.50184 1.85156,1.50781 l -0.0156,0.27539 c -0.56014,0.59444 -1.37242,0.89063 -2.43555,0.89063 -0.88022,0 -1.56704,-0.22214 -2.05859,-0.66797 0.42296,-0.19433 0.79515,-0.75989 1.11523,-1.69727 0.46869,-0.20576 0.98283,-0.30859 1.54297,-0.30859 z"
         style="fill:#d743e3;fill-opacity:1;fill-rule:evenodd;stroke:none;stroke-width:1px;stroke-linecap:butt;stroke-linejoin:miter;stroke-opacity:1" />
      <g
         transform="matrix(-0.78038859,0,0,0.78038859,-320.27296,94.355822)"
         id="g5762"
         style="font-style:normal;font-variant:normal;font-weight:normal;font-stretch:normal;font-size:45px;line-height:125%;font-family:'Domestic Manners';-inkscape-font-specification:'Domestic Manners';text-align:center;letter-spacing:0px;word-spacing:0px;text-anchor:middle;fill:#000000;fill-opacity:1;stroke:none;stroke-width:1px;stroke-linecap:butt;stroke-linejoin:miter;stroke-opacity:1" />
    </g>
  </g>
</svg>
