<?xml version="1.0" encoding="UTF-8" standalone="no"?>
<!-- Created with Inkscape (http://www.inkscape.org/) -->

<svg
   xmlns:dc="http://purl.org/dc/elements/1.1/"
   xmlns:cc="http://creativecommons.org/ns#"
   xmlns:rdf="http://www.w3.org/1999/02/22-rdf-syntax-ns#"
   xmlns:svg="http://www.w3.org/2000/svg"
   xmlns="http://www.w3.org/2000/svg"
   xmlns:sodipodi="http://sodipodi.sourceforge.net/DTD/sodipodi-0.dtd"
   xmlns:inkscape="http://www.inkscape.org/namespaces/inkscape"
   width="124.08645mm"
   height="80.231277mm"
   viewBox="0 0 439.67639 284.28405"
   id="svg5824"
   version="1.1"
   inkscape:version="0.91 r"
   sodipodi:docname="logo.svg">
  <defs
     id="defs5826">
    <filter
       inkscape:collect="always"
       style="color-interpolation-filters:sRGB"
       id="filter4510"
       x="-0.038071852"
       width="1.0761437"
       y="-0.064932778"
       height="1.1298656">
      <feGaussianBlur
         inkscape:collect="always"
         stdDeviation="5.9588895"
         id="feGaussianBlur4512" />
    </filter>
  </defs>
  <sodipodi:namedview
     id="base"
     pagecolor="#ffffff"
     bordercolor="#666666"
     borderopacity="1.0"
     inkscape:pageopacity="0.0"
     inkscape:pageshadow="2"
     inkscape:zoom="0.73924242"
     inkscape:cx="219.8382"
     inkscape:cy="142.14203"
     inkscape:document-units="px"
     inkscape:current-layer="layer1"
     showgrid="false"
     fit-margin-top="5"
     fit-margin-right="5"
     fit-margin-bottom="5"
     fit-margin-left="5" />
  <metadata
     id="metadata5829">
    <rdf:RDF>
      <cc:Work
         rdf:about="">
        <dc:format>image/svg+xml</dc:format>
        <dc:type
           rdf:resource="http://purl.org/dc/dcmitype/StillImage" />
        <dc:title></dc:title>
      </cc:Work>
    </rdf:RDF>
  </metadata>
  <g
     inkscape:label="Layer 1"
     inkscape:groupmode="layer"
     id="layer1"
     transform="translate(9.8720207,-390.22018)">
    <g
       id="g5742"
       transform="translate(-951.986,-101.81106)"
       inkscape:export-filename="/home/sultana/vmap/mockups/logo.png"
       inkscape:export-xdpi="90"
       inkscape:export-ydpi="90">
      <path
         style="opacity:1;fill:#ff0000;fill-opacity:1;stroke:#ffffff;stroke-width:19;stroke-linecap:butt;stroke-linejoin:miter;stroke-miterlimit:4;stroke-dasharray:none;stroke-dashoffset:0;stroke-opacity:1;filter:url(#filter4510)"
         d="m 1045.1748,524.04911 a 71.043022,71.043022 0 0 0 -71.04295,71.04297 71.043022,71.043022 0 0 0 43.90815,65.6289 c -34.62813,17.91738 -28.27143,45.65235 -28.27143,45.65235 0,0 29.48123,4.23795 35.57813,-25.00977 0,0 -6.393,31.75221 9.0625,39.8711 12.5139,6.57364 45.4473,9.37109 45.4473,9.37109 0,0 -1.1334,16.1979 18.75,13.35742 19.8833,-2.84048 16.7519,-30.39648 16.7519,-30.39648 l -52.4062,-49.74414 a 71.043022,71.043022 0 0 0 25.3066,-12.3086 l -0.9492,11.89063 c -0.1695,1.75144 0.706,3.3042 2.627,4.66015 1.6384,1.18646 3.362,1.78125 5.1699,1.78125 0.339,0 0.8474,-0.0569 1.5254,-0.16992 6.2713,-14.8025 10.5939,-24.57643 12.9668,-29.32226 5.8193,-11.35612 11.9204,-19.97186 18.3047,-25.84766 0.452,1.35595 0.6797,2.90872 0.6797,4.66016 0,2.9944 -0.7912,7.42888 -2.3731,13.30468 -1.5255,5.81931 -2.2891,10.22631 -2.2891,13.22071 0,2.54242 0.8186,5.02957 2.4571,7.45898 1.7514,2.71191 3.7576,4.06641 6.0176,4.06641 1.5254,0 4.4641,-3.24882 8.8144,-9.7461 8.5312,-12.76856 16.0732,-21.63754 22.627,-26.60937 5.5933,-4.23736 10.283,-6.35547 14.0683,-6.35547 1.356,0 2.0332,2.17504 2.0332,6.52539 0,4.68934 -0.6203,10.79044 -1.8633,18.30469 -1.3559,7.85323 -2.8262,13.78551 -4.4082,17.79687 -2.2599,5.70631 -3.3886,9.60489 -3.3886,11.69532 0,2.03393 0.6203,3.89881 1.8632,5.59375 1.4125,1.92093 3.0791,2.88086 5,2.88086 4.8024,0 8.222,-8.8415 10.2559,-26.52539 1.9775,-17.28842 2.9649,-26.7247 2.9649,-28.30665 0,-13.33354 -4.6897,-20 -14.0684,-20 -4.7458,0 -11.1296,2.74039 -19.1524,8.22071 -7.966,5.42382 -11.9765,8.13476 -12.0332,8.13476 -1.2994,0 -2.4576,-1.69409 -3.4746,-5.08398 -1.4124,-4.80234 -2.5156,-7.90981 -3.3066,-9.32227 -1.9774,-3.38988 -4.8297,-5.08398 -8.5586,-5.08398 -4.2752,0 -9.0984,2.19553 -14.4648,6.56055 a 71.043022,71.043022 0 0 0 0.914,-10.80469 71.043022,71.043022 0 0 0 -17.2676,-46.29493 c 0.2651,-0.44209 0.4226,-0.73869 0.7325,-1.24218 1.356,-2.25993 2.0351,-4.32307 2.0351,-6.1875 0,-2.25993 -0.8479,-4.2367 -2.543,-5.93164 -1.6949,-1.69495 -3.6717,-2.54297 -5.9316,-2.54297 -2.4859,0 -4.1525,1.55471 -5,4.66211 -0.093,0.36822 -0.1503,0.60192 -0.2422,0.96484 a 71.043022,71.043022 0 0 0 -42.8262,-14.4707 z m 213.0704,62.15039 c -1.243,0 -9.8018,3.02307 -25.6778,9.06836 -14.633,5.59331 -23.9554,9.26614 -27.9668,11.01758 -0.339,1.18646 -0.5078,2.39962 -0.5078,3.64258 0,4.97182 1.8924,8.98425 5.6778,12.03515 5.6498,-0.33898 12.8521,-2.85362 21.6093,-7.54297 9.6047,-5.25432 16.6402,-8.30487 21.1035,-9.15234 -1.0169,12.93807 -4.2657,23.9271 -9.746,32.9668 -3.4465,-1.69495 -7.2037,-2.54297 -11.2715,-2.54297 -5.5934,0 -10.6502,1.63912 -15.17,4.91601 -5.0283,3.61588 -7.5429,8.10729 -7.5429,13.47461 0,7.06226 3.4471,12.48611 10.3398,16.27149 5.5934,2.9944 12.2028,4.49218 19.8301,4.49218 1.2994,0 7.43,-0.39652 18.3906,-1.1875 7.2883,-6.15829 10.9317,-11.18561 10.9317,-15.08398 0,-1.86444 -0.5084,-3.78624 -1.5254,-5.76367 -0.904,-0.50848 -3.1065,-0.95998 -6.6094,-1.35547 -2.4294,-0.33899 -4.3787,-1.61103 -5.8477,-3.81445 0.2825,-5.81931 2.3437,-14.63331 6.1856,-26.44141 3.7289,-11.35611 5.5937,-20.14068 5.5937,-26.35547 0,-5.76281 -2.599,-8.64453 -7.7968,-8.64453 z m 56.4414,7.28906 c -5.5368,0 -10.0282,3.47456 -13.4746,10.42383 -0.791,1.52545 -3.3606,8.70032 -7.711,21.52539 -3.0508,9.09619 -6.4704,15.22673 -10.2558,18.39063 0.452,2.8814 0.6777,5.93195 0.6777,9.15234 0,9.66117 -2.654,22.06164 -7.9648,37.20312 -2.5425,7.28826 -3.8145,11.89352 -3.8145,13.81446 0,4.40685 2.599,7.03339 7.7969,7.88086 3.8983,-3.78538 7.8813,-11.80828 11.9492,-24.06836 2.5989,-9.0397 5.2255,-18.10693 7.8809,-27.20313 9.1526,5.48032 17.996,8.22071 26.5273,8.22071 2.2034,0 4.0663,-0.11385 5.5918,-0.33985 5.8193,-0.84746 10.3971,-4.43393 13.7305,-10.76172 2.7684,-5.36732 4.1523,-11.29959 4.1523,-17.79687 0,-9.43518 -3.4471,-19.29547 -10.3398,-29.57813 -7.5708,-11.24312 -15.8195,-16.86328 -24.7461,-16.86328 z m 4.83,15.33789 c 4.5764,0 8.8421,4.09684 12.7969,12.28907 3.5029,7.17525 5.2559,13.44713 5.2559,18.81445 0,4.12436 -1.2446,7.542 -3.7305,10.2539 -2.4294,2.71191 -5.7057,4.06836 -9.8301,4.06836 -6.4408,0 -13.6725,-2.85424 -21.6953,-8.56054 l 4.5762,-22.03321 c 2.9944,-9.88716 7.2031,-14.83203 12.6269,-14.83203 z m -86.4414,39.32422 c 2.7684,0 5.3105,0.50843 7.627,1.52539 1.5819,4.63284 3.4194,7.4282 5.5098,8.38867 -2.4294,2.20342 -5.8196,3.30469 -10.17,3.30469 -5.2543,0 -9.2667,-1.46835 -12.0351,-4.40625 l -0.084,-1.35547 c -0.226,-4.97183 2.8245,-7.45703 9.1523,-7.45703 z m -174.7109,26.5293 c 4.9381,0 7.317,1.93645 7.1406,5.8164 l -0.059,1.0625 c -2.1604,2.29271 -5.2941,3.43555 -9.3945,3.43555 -3.3949,0 -6.0437,-0.85663 -7.9394,-2.57617 1.6313,-0.74952 3.0662,-2.93146 4.3007,-6.54688 1.8077,-0.79359 3.7907,-1.1914 5.9512,-1.1914 z"
         id="path5744"
         inkscape:connector-curvature="0" />
      <g
         id="g5746"
         transform="matrix(3.8569359,0,0,3.8569359,1756.9835,-1063.537)">
        <circle
           r="18.41955"
           cy="430.03223"
           cx="-184.55276"
           id="circle5748"
           style="opacity:1;fill:#ffbf00;fill-opacity:1;stroke:none;stroke-width:1;stroke-linecap:butt;stroke-linejoin:miter;stroke-miterlimit:4;stroke-dasharray:none;stroke-dashoffset:0;stroke-opacity:1" />
        <path
           inkscape:connector-curvature="0"
           id="path5750"
           style="font-style:normal;font-variant:normal;font-weight:normal;font-stretch:normal;font-size:medium;line-height:125%;font-family:'Domestic Manners';-inkscape-font-specification:'Domestic Manners';text-align:center;letter-spacing:0px;word-spacing:0px;text-anchor:middle;fill:#d743e3;fill-opacity:1;stroke:none;stroke-width:1px;stroke-linecap:butt;stroke-linejoin:miter;stroke-opacity:1"
           d="m -169.89297,416.103 q 0,0.72509 -0.52735,1.604 -0.70312,1.14258 -0.81299,1.47217 -0.6372,2.15332 -1.99951,6.45996 -2.52685,7.25098 -6.72363,16.04004 -1.09863,2.50488 -3.16406,6.39404 -0.59327,0.87891 -1.84571,0.87891 -0.30761,0 -0.57129,-0.0879 -2.28515,-5.3833 -3.77929,-13.1836 -0.41748,-2.17529 -1.51612,-9.33838 -0.65918,-4.4165 -0.65918,-4.46044 0,-0.50538 0.4834,-1.07666 0.50537,-0.59327 1.01074,-0.59327 0.35157,0 0.68116,0.30762 0.96679,3.01025 2.30713,11.0083 1.20849,7.05322 2.8125,10.85449 6.04248,-10.37109 8.94287,-19.75341 0.59326,-2.48291 1.86767,-7.51465 0.32959,-1.2085 1.29639,-1.2085 0.87891,0 1.53809,0.65918 0.65918,0.65918 0.65918,1.53809 z" />
        <path
           style="opacity:1;fill:#ffbf00;fill-opacity:1;stroke:none;stroke-width:1.20000005;stroke-linecap:round;stroke-linejoin:miter;stroke-miterlimit:4;stroke-dasharray:none;stroke-dashoffset:0;stroke-opacity:1"
           id="path5752"
           d="m -172.90309,452.32509 c 3.26101,-0.70025 4.86684,-1.36354 8.27946,-0.77451 1.19742,0.20668 2.20992,1.26431 3.42494,1.24845 1.33126,-0.0173 2.46672,-1.0336 3.7618,-1.34229 0.61796,-0.14729 1.27326,0.0507 1.90575,-0.009 1.93622,-0.18124 3.86032,-0.47456 5.79049,-0.71185 6.77202,-1.0919 4.77837,-1.18121 11.46135,-0.68928 2.24098,0.16499 4.51937,0.14691 6.70994,0.64751 1.07165,0.2449 1.82221,1.39472 2.91032,1.55099 1.60087,0.22992 3.22132,-0.29271 4.83197,-0.43908 l 5.31381,1.27896 c 1.52321,0.26248 3.1044,0.29529 4.56957,0.78747 0.6637,0.22293 1.74183,0.6074 1.64871,1.3013 -0.0897,0.66784 -1.33596,0.30725 -1.9116,0.65751 -0.14446,0.0879 -0.16748,0.54522 -0.002,0.50729 -4.94682,4.35838 12.55366,3.05827 -3.55874,6.8102 -1.63133,-0.0547 -3.11237,-0.98496 -4.66853,-1.47741 -3.91416,-1.33147 -4.27828,-1.77669 -8.09133,-2.03756 -1.09014,-0.0746 -2.22841,-0.28245 -3.27795,0.0216 -0.64484,0.18676 -0.82593,1.24108 -1.48692,1.35845 -3.73596,0.66346 -7.73131,-1.32595 -11.34751,0.90137 -4.87407,-1.08311 -7.72918,-1.94757 -12.85897,-2.06516 -1.38176,-0.0317 -2.73466,0.48411 -4.11675,0.4948 -1.23044,0.009 -2.43695,-0.3702 -3.66574,-0.43455 -1.43811,-0.0748 -2.9014,0.26314 -4.32011,0.0162 -1.19507,-0.20799 -2.25137,-0.90391 -3.37706,-1.35586 -2.14978,-3.84901 -2.17064,-6.5573 2.0751,-6.24555 z"
           inkscape:connector-curvature="0"
           sodipodi:nodetypes="cscscccssccccsccccccccccccc" />
        <path
           inkscape:connector-curvature="0"
           id="path5754"
           style="font-style:normal;font-variant:normal;font-weight:normal;font-stretch:normal;font-size:medium;line-height:125%;font-family:'Domestic Manners';-inkscape-font-specification:'Domestic Manners';text-align:center;letter-spacing:0px;word-spacing:0px;text-anchor:middle;fill:#d743e3;fill-opacity:1;stroke:none;stroke-width:1px;stroke-linecap:butt;stroke-linejoin:miter;stroke-opacity:1"
           d="m -158.64297,436.186 q 0.022,0 3.12011,-2.10937 3.12012,-2.13135 4.96582,-2.13135 3.64746,0 3.64746,5.18555 0,0.61523 -0.76904,7.33887 -0.79102,6.87744 -2.65869,6.87744 -0.74707,0 -1.29639,-0.74707 -0.4834,-0.65918 -0.4834,-1.4502 0,-0.81299 0.87891,-3.03222 0.61523,-1.56006 1.14258,-4.61426 0.4834,-2.92237 0.4834,-4.7461 0,-1.69189 -0.52735,-1.69189 -1.47216,0 -3.64746,1.64795 -2.54883,1.93359 -5.8667,6.89941 -1.69189,2.52686 -2.28515,2.52686 -0.87891,0 -1.56006,-1.05469 -0.63721,-0.94482 -0.63721,-1.93359 0,-1.16455 0.59326,-3.42774 0.61524,-2.28515 0.61524,-3.4497 0,-0.68116 -0.17578,-1.2085 -2.48291,2.28516 -4.7461,6.70166 -0.92285,1.8457 -3.36181,7.60254 -0.26368,0.0439 -0.39551,0.0439 -0.70313,0 -1.34033,-0.46142 -0.74707,-0.52735 -0.68116,-1.2085 l 1.07666,-13.49121 q 0.022,-0.2417 1.31836,-0.26367 0.21973,0 0.28565,-0.022 l 1.62597,2.17529 q 1.03272,-1.73584 2.87842,-3.25195 2.13135,-1.75782 3.82324,-1.75782 1.4502,0 2.21924,1.31836 0.30762,0.54932 0.85694,2.417 0.3955,1.31835 0.90088,1.31835 z" />
        <path
           inkscape:connector-curvature="0"
           id="path5756"
           style="font-style:normal;font-variant:normal;font-weight:normal;font-stretch:normal;font-size:medium;line-height:125%;font-family:'Domestic Manners';-inkscape-font-specification:'Domestic Manners';text-align:center;letter-spacing:0px;word-spacing:0px;text-anchor:middle;fill:#d743e3;fill-opacity:1;stroke:none;stroke-width:1px;stroke-linecap:butt;stroke-linejoin:miter;stroke-opacity:1"
           d="m -127.28799,429.96774 q 0,2.417 -1.4502,6.8335 -1.49414,4.59228 -1.604,6.85547 0.57129,0.85693 1.51611,0.98877 1.3623,0.15381 1.71387,0.35156 0.3955,0.76904 0.3955,1.49414 0,1.51611 -2.83447,3.91113 -4.26269,0.30762 -4.76806,0.30762 -2.96631,0 -5.14161,-1.16455 -2.68066,-1.47217 -2.68066,-4.21875 0,-2.0874 1.95557,-3.49365 1.75781,-1.27442 3.9331,-1.27442 1.58203,0 2.92237,0.65918 2.13134,-3.51562 2.52685,-8.54736 -1.73584,0.32959 -5.47119,2.37305 -3.40576,1.82373 -5.60303,1.95556 -1.47217,-1.18652 -1.47217,-3.12011 0,-0.4834 0.13184,-0.94483 1.56006,-0.68115 7.25098,-2.85644 6.17431,-2.35108 6.65771,-2.35108 2.02149,0 2.02149,2.24121 z m -5.14161,16.3916 q -0.81298,-0.37353 -1.42822,-2.17529 -0.90088,-0.39551 -1.97754,-0.39551 -2.46094,0 -2.37304,1.9336 l 0.022,0.35156 q 1.07666,1.14258 3.12012,1.14258 1.69189,0 2.63671,-0.85694 z" />
        <path
           inkscape:connector-curvature="0"
           id="path5758"
           style="font-style:normal;font-variant:normal;font-weight:normal;font-stretch:normal;font-size:medium;line-height:125%;font-family:'Domestic Manners';-inkscape-font-specification:'Domestic Manners';text-align:center;letter-spacing:0px;word-spacing:0px;text-anchor:middle;fill:#d743e3;fill-opacity:1;stroke:none;stroke-width:1px;stroke-linecap:butt;stroke-linejoin:miter;stroke-opacity:1"
           d="m -111.66544,449.14987 q -3.31787,0 -6.87744,-2.13135 -1.03271,3.5376 -2.04345,7.05323 -1.58204,4.76806 -3.09815,6.24023 -2.02148,-0.32959 -2.02148,-2.04346 0,-0.74707 0.98877,-3.58154 2.06543,-5.88867 2.06543,-9.64599 0,-1.25245 -0.17579,-2.37305 1.47217,-1.23047 2.6587,-4.76807 1.69189,-4.98779 1.99951,-5.58105 1.34033,-2.70264 3.49365,-2.70264 3.47168,0 6.41602,4.37256 2.68066,3.99902 2.68066,7.66846 0,2.52685 -1.07666,4.61425 -1.29639,2.46094 -3.55957,2.79053 -0.59326,0.0879 -1.4502,0.0879 z m -1.75781,-15.55664 q -2.10937,0 -3.27392,3.84522 -0.59327,2.85644 -1.18653,5.71289 3.12012,2.21923 5.625,2.21923 1.60401,0 2.54883,-1.05468 0.9668,-1.05469 0.9668,-2.65869 0,-2.08741 -1.36231,-4.87793 -1.53808,-3.18604 -3.31787,-3.18604 z" />
        <path
           inkscape:connector-curvature="0"
           id="path5760"
           transform="translate(-603.82668,268.04818)"
           d="m 418.05859,176.22852 c -1.69813,0.0475 -3.2624,0.6186 -3.84179,1.86328 -11.18913,4.5439 -9.3086,12.74414 -9.3086,12.74414 0,0 7.64386,1.09877 9.22461,-6.48438 0,0 -1.65759,8.23288 2.34961,10.33789 3.24452,1.70437 11.7832,2.42969 11.7832,2.42969 0,0 -0.2939,4.19935 4.86133,3.46289 5.15522,-0.73646 4.34375,-7.88086 4.34375,-7.88086 l -13.76172,-13.0625 c 0.38105,-2.11657 -2.82018,-3.48925 -5.65039,-3.41015 z m 4.63477,6.39062 c 1.28032,0 1.89728,0.50184 1.85156,1.50781 l -0.0156,0.27539 c -0.56014,0.59444 -1.37242,0.89063 -2.43555,0.89063 -0.88022,0 -1.56704,-0.22214 -2.05859,-0.66797 0.42296,-0.19433 0.79515,-0.75989 1.11523,-1.69727 0.46869,-0.20576 0.98283,-0.30859 1.54297,-0.30859 z"
           style="fill:#d743e3;fill-opacity:1;fill-rule:evenodd;stroke:none;stroke-width:1px;stroke-linecap:butt;stroke-linejoin:miter;stroke-opacity:1" />
        <g
           transform="matrix(-0.78038859,0,0,0.78038859,-320.27296,94.355822)"
           id="g5762"
           style="font-style:normal;font-variant:normal;font-weight:normal;font-stretch:normal;font-size:45px;line-height:125%;font-family:'Domestic Manners';-inkscape-font-specification:'Domestic Manners';text-align:center;letter-spacing:0px;word-spacing:0px;text-anchor:middle;fill:#000000;fill-opacity:1;stroke:none;stroke-width:1px;stroke-linecap:butt;stroke-linejoin:miter;stroke-opacity:1" />
      </g>
      <path
         inkscape:connector-curvature="0"
         id="path5764"
         style="font-style:normal;font-variant:normal;font-weight:normal;font-stretch:normal;font-size:30px;line-height:125%;font-family:Kammer;-inkscape-font-specification:Kammer;text-align:center;letter-spacing:0.75px;word-spacing:0px;text-anchor:middle;fill:#ffffff;fill-opacity:1;stroke:none;stroke-width:0.80211985;stroke-linecap:butt;stroke-linejoin:miter;stroke-miterlimit:4;stroke-dasharray:none;stroke-opacity:1"
         d="m 1264.072,704.3962 -2.16,0 0,-12.75 -9.15,-0.3 0,-2.58 q 5.22,0.12 5.94,0.12 3.81,0.12 5.13,0.36 l 0.24,15.15 z m -8.67,-7.02 -0.27,6.54 -2.1,-0.15 0.3,-6.54 2.07,0.15 z" />
      <path
         inkscape:connector-curvature="0"
         id="path5766"
         style="font-style:normal;font-variant:normal;font-weight:normal;font-stretch:normal;font-size:30px;line-height:125%;font-family:Kammer;-inkscape-font-specification:Kammer;text-align:center;letter-spacing:0.75px;word-spacing:0px;text-anchor:middle;fill:#ffffff;fill-opacity:1;stroke:none;stroke-width:0.80211985;stroke-linecap:butt;stroke-linejoin:miter;stroke-miterlimit:4;stroke-dasharray:none;stroke-opacity:1"
         d="m 1248.9829,703.7962 -9.51,0 0,-3.12 7.08,0 0,-8.85 -7.32,0 0,-3.03 q 1.65,0 4.86,-0.09 3.24,-0.12 4.89,-0.12 l 0,15.21 z" />
      <path
         inkscape:connector-curvature="0"
         id="path5768"
         style="font-style:normal;font-variant:normal;font-weight:normal;font-stretch:normal;font-size:30px;line-height:125%;font-family:Kammer;-inkscape-font-specification:Kammer;text-align:center;letter-spacing:0.75px;word-spacing:0px;text-anchor:middle;fill:#ffffff;fill-opacity:1;stroke:none;stroke-width:0.80211985;stroke-linecap:butt;stroke-linejoin:miter;stroke-miterlimit:4;stroke-dasharray:none;stroke-opacity:1"
         d="m 1235.7431,697.4962 -2.28,0 0,-5.07 -1.83,0 0,-3.51 4.11,0 0,8.58 z" />
      <path
         inkscape:connector-curvature="0"
         id="path5770"
         style="font-style:normal;font-variant:normal;font-weight:normal;font-stretch:normal;font-size:30px;line-height:125%;font-family:Kammer;-inkscape-font-specification:Kammer;text-align:center;letter-spacing:0.75px;word-spacing:0px;text-anchor:middle;fill:#ffffff;fill-opacity:1;stroke:none;stroke-width:0.80211985;stroke-linecap:butt;stroke-linejoin:miter;stroke-miterlimit:4;stroke-dasharray:none;stroke-opacity:1"
         d="m 1227.9032,703.7962 -2.04,0 0,-12.3 q -1.26,-0.03 -2.07,0 l 0,-2.58 4.11,0.03 0,14.85 z" />
      <path
         inkscape:connector-curvature="0"
         id="path5772"
         style="font-style:normal;font-variant:normal;font-weight:normal;font-stretch:normal;font-size:30px;line-height:125%;font-family:Kammer;-inkscape-font-specification:Kammer;text-align:center;letter-spacing:0.75px;word-spacing:0px;text-anchor:middle;fill:#ffffff;fill-opacity:1;stroke:none;stroke-width:0.80211985;stroke-linecap:butt;stroke-linejoin:miter;stroke-miterlimit:4;stroke-dasharray:none;stroke-opacity:1"
         d="m 1220.0634,703.7962 -2.04,0 0,-12.3 q -1.26,-0.03 -2.07,0 l 0,-2.58 4.11,0.03 0,14.85 z" />
      <path
         inkscape:connector-curvature="0"
         id="path5774"
         style="font-style:normal;font-variant:normal;font-weight:normal;font-stretch:normal;font-size:30px;line-height:125%;font-family:Kammer;-inkscape-font-specification:Kammer;text-align:center;letter-spacing:0.75px;word-spacing:0px;text-anchor:middle;fill:#ffffff;fill-opacity:1;stroke:none;stroke-width:0.80211985;stroke-linecap:butt;stroke-linejoin:miter;stroke-miterlimit:4;stroke-dasharray:none;stroke-opacity:1"
         d="m 1212.1748,709.7962 -2.34,0 0,-18.33 -2.19,0 0,-2.52 4.32,0 q 0,11.79 0.21,20.85 z" />
      <path
         inkscape:connector-curvature="0"
         id="path5776"
         style="font-style:normal;font-variant:normal;font-weight:normal;font-stretch:normal;font-size:30px;line-height:125%;font-family:Kammer;-inkscape-font-specification:Kammer;text-align:center;letter-spacing:0.75px;word-spacing:0px;text-anchor:middle;fill:#ffffff;fill-opacity:1;stroke:none;stroke-width:0.80211985;stroke-linecap:butt;stroke-linejoin:miter;stroke-miterlimit:4;stroke-dasharray:none;stroke-opacity:1"
         d="m 1203.8582,694.9162 -2.61,0.03 q -0.36,0 -0.36,-1.26 0,-0.75 0.03,-1.5 l 2.91,-0.03 q 0,0.27 0.03,2.76 z m 0,9.18 -2.61,0.03 q -0.3,0.03 -0.3,-0.33 l -0.03,-2.49 2.91,-0.03 q 0,0.45 0.03,2.82 z" />
      <path
         inkscape:connector-curvature="0"
         id="path5778"
         style="font-style:normal;font-variant:normal;font-weight:bold;font-stretch:normal;font-size:30px;line-height:125%;font-family:Kammer;-inkscape-font-specification:'Kammer Bold';text-align:center;letter-spacing:0.75px;word-spacing:0px;text-anchor:middle;fill:#ffffff;fill-opacity:1;stroke:none;stroke-width:0.80211985;stroke-linecap:butt;stroke-linejoin:miter;stroke-miterlimit:4;stroke-dasharray:none;stroke-opacity:1"
         d="m 1198.011,703.7962 c 0,0 -11.84,0.57 -13.38,0.57 l -0.33,-5.13 8.28,-0.3 0,-4.92 c -0.6,-0.14 -1.38,-0.21 -2.34,-0.21 l 0,3.21 -5.13,0 -0.09,-8.73 12.9,0.81 z"
         sodipodi:nodetypes="ccccccccccc" />
      <path
         inkscape:connector-curvature="0"
         id="path5780"
         style="font-style:normal;font-variant:normal;font-weight:bold;font-stretch:normal;font-size:30px;line-height:125%;font-family:Kammer;-inkscape-font-specification:'Kammer Bold';text-align:center;letter-spacing:0.75px;word-spacing:0px;text-anchor:middle;fill:#ffffff;fill-opacity:1;stroke:none;stroke-width:0.80211985;stroke-linecap:butt;stroke-linejoin:miter;stroke-miterlimit:4;stroke-dasharray:none;stroke-opacity:1"
         d="m 1182.044,689.4262 q 0,0.03 -0.69,4.77 -0.78,5.43 -1.14,8.28 -0.06,0.09 -0.3,0.24 l -13.02,4.68 -1.8,-4.86 q 0.06,-0.03 1.74,-0.63 1.02,-0.33 1.56,-0.75 l -1.92,-12 5.19,-0.72 1.83,11.01 q 0.6,-0.21 1.17,-0.42 0.72,-0.3 0.75,-0.66 0.21,-2.13 0.66,-4.98 0.57,-3.51 0.75,-4.95 l 5.22,0.63 0,0.36 z" />
      <path
         inkscape:connector-curvature="0"
         id="path5782"
         style="font-style:normal;font-variant:normal;font-weight:bold;font-stretch:normal;font-size:30px;line-height:125%;font-family:Kammer;-inkscape-font-specification:'Kammer Bold';text-align:center;letter-spacing:0.75px;word-spacing:0px;text-anchor:middle;fill:#ffffff;fill-opacity:1;stroke:none;stroke-width:0.80211985;stroke-linecap:butt;stroke-linejoin:miter;stroke-miterlimit:4;stroke-dasharray:none;stroke-opacity:1"
         d="m 1162.8707,703.7962 -5.04,0 0,-9.75 q -0.09,-0.12 -0.96,-0.06 -1.29,0.09 -1.11,0.09 l 0,-5.04 q 2.64,-0.3 7.11,-0.15 l 0,14.91 z" />
      <path
         inkscape:connector-curvature="0"
         id="path5784"
         style="font-style:normal;font-variant:normal;font-weight:bold;font-stretch:normal;font-size:30px;line-height:125%;font-family:Kammer;-inkscape-font-specification:'Kammer Bold';text-align:center;letter-spacing:0.75px;word-spacing:0px;text-anchor:middle;fill:#ffffff;fill-opacity:1;stroke:none;stroke-width:0.80211985;stroke-linecap:butt;stroke-linejoin:miter;stroke-miterlimit:4;stroke-dasharray:none;stroke-opacity:1"
         d="m 1153.4549,688.8862 -2.82,15.87 -5.13,-0.96 1.86,-9.6 q -7.44,0 -7.56,-0.36 l 0.57,-9.93 5.19,0.24 -0.24,4.71 8.13,0.03 z" />
      <path
         inkscape:connector-curvature="0"
         id="path5786"
         style="font-style:normal;font-variant:normal;font-weight:bold;font-stretch:normal;font-size:30px;line-height:125%;font-family:Kammer;-inkscape-font-specification:'Kammer Bold';text-align:center;letter-spacing:0.75px;word-spacing:0px;text-anchor:middle;fill:#ffffff;fill-opacity:1;stroke:none;stroke-width:0.80211985;stroke-linecap:butt;stroke-linejoin:miter;stroke-miterlimit:4;stroke-dasharray:none;stroke-opacity:1"
         d="m 1137.5746,704.3962 -5.19,0 0,-10.35 -9.15,-0.24 0,-5.07 14.07,0.15 0.27,15.51 z m -8.61,-8.58 -0.45,8.28 -5.1,-0.3 0.48,-8.28 5.07,0.3 z" />
      <path
         inkscape:connector-curvature="0"
         id="path5788"
         style="font-style:normal;font-variant:normal;font-weight:bold;font-stretch:normal;font-size:30px;line-height:125%;font-family:Kammer;-inkscape-font-specification:'Kammer Bold';text-align:center;letter-spacing:0.75px;word-spacing:0px;text-anchor:middle;fill:#ffffff;fill-opacity:1;stroke:none;stroke-width:0.80211985;stroke-linecap:butt;stroke-linejoin:miter;stroke-miterlimit:4;stroke-dasharray:none;stroke-opacity:1"
         d="m 1120.8379,699.9562 -4.38,-0.6 -0.36,-10.44 4.35,-0.18 0.39,11.22 z m 0.12,3.84 -4.35,0 -0.09,-2.7 4.35,-0.03 0.09,2.73 z" />
    </g>
  </g>
</svg>
